<svg width="20" height="14" viewBox="0 0 20 14" fill="none" xmlns="http://www.w3.org/2000/svg">
<path d="M17.503 0H5.00737C4.31726 0 3.75781 0.559452 3.75781 1.24956C3.75781 1.93967 4.31726 2.49912 5.00737 2.49912H17.503C18.1931 2.49912 18.7525 1.93967 18.7525 1.24956C18.7525 0.559452 18.1931 0 17.503 0Z" fill="#070026"/>
<path d="M2.50612 1.2482C2.50472 0.917345 2.37214 0.600542 2.1375 0.367265C1.65013 -0.117213 0.862988 -0.117213 0.37562 0.367265C0.140937 0.600542 0.0083662 0.917345 0.00699949 1.2482C-0.00233316 1.32915 -0.00233316 1.41092 0.00699949 1.49187C0.0211351 1.57329 0.0441739 1.65291 0.0757253 1.72929C0.109268 1.80328 0.148981 1.87435 0.194434 1.94171C0.239301 2.01176 0.291665 2.0767 0.350629 2.13539C0.407484 2.19201 0.470313 2.24231 0.538063 2.28534C0.60386 2.33325 0.675202 2.37312 0.750488 2.40405C0.833311 2.447 0.9216 2.47855 1.0129 2.49777C1.09384 2.50682 1.17561 2.50682 1.25656 2.49777C1.58652 2.49804 1.90321 2.36777 2.1375 2.13539C2.19646 2.0767 2.24883 2.01176 2.2937 1.94171C2.33915 1.87435 2.37886 1.80328 2.4124 1.72929C2.45227 1.65384 2.48371 1.57422 2.50612 1.49187C2.51545 1.41092 2.51545 1.32915 2.50612 1.2482Z" fill="#070026"/>
<path d="M2.50693 6.87321C2.51623 6.79226 2.51623 6.71049 2.50693 6.62954C2.48534 6.5489 2.45387 6.47128 2.41322 6.39837C2.38104 6.32172 2.34125 6.24846 2.29451 6.1797C2.2512 6.11043 2.19864 6.04736 2.13831 5.99226C1.65095 5.50779 0.863801 5.50779 0.376433 5.99226C0.14175 6.22554 0.00917921 6.54234 0.0078125 6.87321C0.0102335 7.03787 0.0419802 7.20075 0.10153 7.35429C0.132847 7.42821 0.17049 7.49927 0.21399 7.56671C0.261512 7.63462 0.315946 7.69745 0.376433 7.75415C0.431648 7.81436 0.494673 7.86692 0.563867 7.91034C0.629664 7.95829 0.700967 7.99816 0.776292 8.02905C0.852476 8.06111 0.932175 8.08418 1.01371 8.09777C1.09364 8.1157 1.17545 8.12409 1.25737 8.12277C1.33832 8.1321 1.42009 8.1321 1.50104 8.12277C1.58054 8.10914 1.65817 8.08606 1.73221 8.05404C1.80956 8.02335 1.88297 7.98348 1.95088 7.93533C2.02007 7.89191 2.0831 7.83935 2.13831 7.77914C2.19853 7.72392 2.25109 7.6609 2.29451 7.5917C2.34254 7.52594 2.38241 7.45464 2.41322 7.37928C2.4559 7.29634 2.48741 7.20809 2.50693 7.11687C2.51654 7.03592 2.51654 6.95415 2.50693 6.87321Z" fill="#070026"/>
<path d="M2.50701 12.4943C2.51627 12.4134 2.51627 12.3316 2.50701 12.2506C2.48542 12.168 2.45394 12.0883 2.41329 12.0132C2.37975 11.9392 2.34004 11.8682 2.29459 11.8008C2.25116 11.7316 2.1986 11.6686 2.13839 11.6134C1.65102 11.1289 0.863877 11.1289 0.37651 11.6134C0.316296 11.6686 0.263737 11.7316 0.220314 11.8008C0.174862 11.8682 0.135149 11.9392 0.101606 12.0132C0.0691957 12.0893 0.0461178 12.169 0.0328803 12.2506C0.0152693 12.3306 0.00691288 12.4124 0.0078891 12.4943C0.00929485 12.8252 0.141865 13.142 0.37651 13.3752C0.431724 13.4355 0.494749 13.488 0.563944 13.5314C0.629741 13.5794 0.701044 13.6193 0.776369 13.6501C0.852553 13.6822 0.932252 13.7053 1.01379 13.7189C1.09372 13.7368 1.17553 13.7452 1.25745 13.7439C1.3384 13.7532 1.42017 13.7532 1.50111 13.7439C1.58062 13.7302 1.65825 13.7072 1.73228 13.6751C1.80964 13.6444 1.88305 13.6046 1.95096 13.5564C2.02015 13.513 2.08318 13.4604 2.13839 13.4002C2.1986 13.345 2.25116 13.282 2.29459 13.2128C2.34265 13.1471 2.38252 13.0757 2.41329 13.0004C2.45593 12.9174 2.48745 12.8292 2.50701 12.738C2.51662 12.657 2.51662 12.5752 2.50701 12.4943Z" fill="#070026"/>
<path d="M18.7525 5.62109H5.00737C4.31726 5.62109 3.75781 6.18055 3.75781 6.87065C3.75781 7.56076 4.31726 8.12022 5.00737 8.12022H18.7525C19.4426 8.12022 20.0021 7.56076 20.0021 6.87065C20.0021 6.18055 19.4426 5.62109 18.7525 5.62109Z" fill="#070026"/>
<path d="M13.1295 11.2461H5.00737C4.31726 11.2461 3.75781 11.8055 3.75781 12.4957C3.75781 13.1858 4.31726 13.7452 5.00737 13.7452H13.1295C13.8196 13.7452 14.3791 13.1858 14.3791 12.4957C14.3791 11.8055 13.8196 11.2461 13.1295 11.2461Z" fill="#070026"/>
</svg>
