<svg width="13" height="19" viewBox="0 0 13 19" fill="none" xmlns="http://www.w3.org/2000/svg">
<path d="M12.7478 15.5637C12.7478 17.2284 10.0511 18.5768 6.72155 18.5768C3.39206 18.5768 0.695312 17.2284 0.695312 15.5637C0.695312 14.5919 1.61431 13.7257 3.03048 13.1758L3.52011 13.8613C2.70657 14.2002 2.20187 14.6673 2.20187 15.187C2.20187 16.2266 4.2282 17.0702 6.72155 17.0702C9.21491 17.0702 11.2412 16.2266 11.2412 15.187C11.2412 14.6673 10.7365 14.2002 9.92299 13.8613L10.4051 13.1758C11.8288 13.7257 12.7403 14.5919 12.7403 15.5637H12.7478Z" fill="#4081FF"/>
<path d="M6.72281 0.500057C7.314 0.497083 7.89999 0.61069 8.44723 0.834378C8.99447 1.05807 9.49222 1.38744 9.91201 1.80367C10.3318 2.21989 10.6654 2.71479 10.8937 3.26004C11.122 3.8053 11.2405 4.39021 11.2425 4.98131C11.2425 8.34038 6.72281 13.3037 6.72281 13.3037C6.72281 13.3037 2.20312 8.34038 2.20312 4.98131C2.2051 4.39021 2.32362 3.8053 2.55192 3.26004C2.78022 2.71479 3.11381 2.21989 3.5336 1.80367C3.95339 1.38744 4.45114 1.05807 4.99838 0.834378C5.54562 0.61069 6.13161 0.497083 6.72281 0.500057ZM6.72281 3.51267C6.42484 3.51267 6.13356 3.60101 5.88581 3.76653C5.63805 3.93204 5.44495 4.16729 5.33093 4.44253C5.2169 4.71778 5.18706 5.02064 5.24519 5.31284C5.30332 5.60503 5.44681 5.87343 5.65751 6.08409C5.8682 6.29475 6.13665 6.43821 6.42889 6.49633C6.72113 6.55446 7.02405 6.52463 7.29934 6.41062C7.57463 6.29661 7.80992 6.10354 7.97546 5.85583C8.14101 5.60812 8.22937 5.31689 8.22937 5.01897C8.22937 4.61948 8.07064 4.23634 7.7881 3.95385C7.50557 3.67137 7.12237 3.51267 6.72281 3.51267Z" fill="#ADA7A7"/>
<path d="M12.7478 15.5637C12.7478 17.2284 10.0511 18.5768 6.72155 18.5768C3.39206 18.5768 0.695312 17.2284 0.695312 15.5637C0.695312 14.5919 1.61431 13.7257 3.03048 13.1758L3.52011 13.8613C2.70657 14.2002 2.20187 14.6673 2.20187 15.187C2.20187 16.2266 4.2282 17.0702 6.72155 17.0702C9.21491 17.0702 11.2412 16.2266 11.2412 15.187C11.2412 14.6673 10.7365 14.2002 9.92299 13.8613L10.4051 13.1758C11.8288 13.7257 12.7403 14.5919 12.7403 15.5637H12.7478Z" fill="#ADA7A7"/>
</svg>
