<svg width="22" height="22" viewBox="0 0 22 22" fill="none" xmlns="http://www.w3.org/2000/svg">
<path d="M11 21C6.28595 21 3.92893 21 2.46447 19.5355C1 18.0711 1 15.714 1 11C1 6.28595 1 3.92893 2.46447 2.46447C3.92893 1 6.28595 1 11 1C15.714 1 18.0711 1 19.5355 2.46447C21 3.92893 21 6.28595 21 11C21 15.714 21 18.0711 19.5355 19.5355C18.7191 20.352 17.6251 20.7133 16 20.8731" stroke="#141B34" stroke-width="1.2" stroke-linecap="round"/>
<path d="M11 21C11 18.2386 13.2386 16 16 16" stroke="#141B34" stroke-width="1.2" stroke-linecap="round"/>
<path d="M1 8H13" stroke="#141B34" stroke-width="1.2" stroke-linecap="round"/>
<path d="M17 8L21 8" stroke="#141B34" stroke-width="1.2" stroke-linecap="round"/>
<path d="M8 21V8" stroke="#141B34" stroke-width="1.2" stroke-linecap="round"/>
<path d="M8 4L8 1" stroke="#141B34" stroke-width="1.2" stroke-linecap="round"/>
</svg>
