<svg width="13" height="14" viewBox="0 0 13 14" fill="none" xmlns="http://www.w3.org/2000/svg">
<path d="M4.59333 1.09833H6.93333V1.835H4.59333V1.09833ZM10.79 11.4983C10.79 11.585 10.7467 11.6717 10.66 11.7583C10.5733 11.845 10.4867 11.8883 10.4 11.8883H8.84V12.625H10.4C10.7178 12.625 10.985 12.5167 11.2017 12.3C11.4183 12.0833 11.5267 11.8161 11.5267 11.4983V9.93833H10.79V11.4983ZM10.4 1.09833H8.84V1.835H10.4C10.4867 1.835 10.5733 1.87833 10.66 1.965C10.7467 2.05167 10.79 2.13833 10.79 2.225V3.785H11.5267V2.225C11.5267 1.90722 11.4183 1.64 11.2017 1.42333C10.985 1.20667 10.7178 1.09833 10.4 1.09833ZM0.736667 2.225C0.736667 2.13833 0.78 2.05167 0.866667 1.965C0.953333 1.87833 1.04 1.835 1.12667 1.835H2.68667V1.09833H1.12667C0.808889 1.09833 0.541667 1.20667 0.325 1.42333C0.108333 1.64 0 1.90722 0 2.225V3.785H0.736667V2.225ZM10.79 5.69167H11.5267V8.03167H10.79V5.69167ZM8.84 6.47167V4.175C8.84 4.05944 8.80389 3.96556 8.73167 3.89333C8.65944 3.82111 8.56556 3.785 8.45 3.785H6.15333V4.565H7.54L5.50333 6.60167C5.33 6.515 5.15667 6.47167 4.98333 6.47167H1.12667C1.01111 6.47167 0.881111 6.50056 0.736667 6.55833V5.69167H0V11.4983C0 11.8161 0.108333 12.0833 0.325 12.3C0.541667 12.5167 0.808889 12.625 1.12667 12.625H6.93333V11.8883H6.06667C6.12444 11.7439 6.15333 11.6139 6.15333 11.4983V7.64167C6.15333 7.46833 6.11 7.295 6.02333 7.12167L8.06 5.085V6.47167H8.84ZM1.12667 11.8883C1.04 11.8883 0.953333 11.845 0.866667 11.7583C0.78 11.6717 0.736667 11.585 0.736667 11.4983V7.64167C0.736667 7.52611 0.78 7.43222 0.866667 7.36C0.953333 7.28778 1.04 7.25167 1.12667 7.25167H4.98333C5.09889 7.25167 5.19278 7.28778 5.265 7.36C5.33722 7.43222 5.37333 7.52611 5.37333 7.64167V11.4983C5.37333 11.585 5.33722 11.6717 5.265 11.7583C5.19278 11.845 5.09889 11.8883 4.98333 11.8883H1.12667Z" fill="#181A20"/>
</svg>
