<svg width="22" height="20" viewBox="0 0 22 20" fill="none" xmlns="http://www.w3.org/2000/svg">
<path d="M5 18L4 19M17 18L18 19" stroke="#080127" stroke-width="1.2" stroke-linecap="round"/>
<path d="M2 10L2 11C2 14.2998 2 15.9497 3.02513 16.9749C4.05025 18 5.70017 18 9 18L13 18C16.2998 18 17.9497 18 18.9749 16.9749C20 15.9497 20 14.2998 20 11V10" stroke="#080127" stroke-width="1.2" stroke-linecap="round" stroke-linejoin="round"/>
<path d="M1 10L21 10" stroke="#080127" stroke-width="1.2" stroke-linecap="round"/>
<path d="M3 10L3 3.5234C3 2.12977 4.12977 1 5.5234 1C6.64166 1 7.62654 1.73598 7.94339 2.80841L8 3" stroke="#080127" stroke-width="1.2" stroke-linecap="round"/>
<path d="M7 4L9.5 2" stroke="#080127" stroke-width="1.2" stroke-linecap="round"/>
</svg>
