<svg width="13" height="17" viewBox="0 0 13 17" fill="none" xmlns="http://www.w3.org/2000/svg">
<path d="M8.84 1.09833H5.37333C4.88222 1.09833 4.43444 1.21389 4.03 1.445C3.62556 1.67611 3.30056 2.00111 3.055 2.42C2.80944 2.83889 2.68667 3.29389 2.68667 3.785H1.90667C1.38667 3.785 0.938889 3.97278 0.563333 4.34833C0.187778 4.72389 0 5.17167 0 5.69167V6.86167C0 6.97722 0.0361111 7.07111 0.108333 7.14333C0.180556 7.21556 0.274444 7.25167 0.39 7.25167H5.76333C5.87889 7.25167 5.97278 7.21556 6.045 7.14333C6.11722 7.07111 6.15333 6.97722 6.15333 6.86167V5.69167C6.15333 5.17167 5.96556 4.72389 5.59 4.34833C5.21444 3.97278 4.76667 3.785 4.24667 3.785H3.46667C3.46667 3.265 3.65444 2.81722 4.03 2.44167C4.40556 2.06611 4.85333 1.86389 5.37333 1.835H8.84C9.36 1.86389 9.80778 2.06611 10.1833 2.44167C10.5589 2.81722 10.7611 3.265 10.79 3.785V12.235H11.5267V3.785C11.5267 3.29389 11.4111 2.83889 11.18 2.42C10.9489 2.00111 10.6239 1.67611 10.205 1.445C9.78611 1.21389 9.33111 1.09833 8.84 1.09833ZM4.20333 4.565C4.52111 4.565 4.79556 4.67333 5.02667 4.89C5.25778 5.10667 5.37333 5.37389 5.37333 5.69167V6.47167H0.736667V5.69167C0.736667 5.37389 0.852222 5.10667 1.08333 4.89C1.31444 4.67333 1.58889 4.565 1.90667 4.565H4.20333ZM0.39 8.42167H1.12667V11.1083H0.39V8.42167ZM1.90667 8.42167H2.68667V9.54833H1.90667V8.42167ZM1.90667 10.7183H2.68667V12.235H1.90667V10.7183ZM3.46667 8.42167H4.20333V10.3283H3.46667V8.42167ZM3.46667 11.1083H4.20333V11.845H3.46667V11.1083ZM4.98333 8.42167H5.76333V9.54833H4.98333V8.42167ZM4.98333 10.3283H5.76333V12.625H4.98333V10.3283Z" fill="#181A20"/>
</svg>
