<svg width="17" height="14" viewBox="0 0 17 14" fill="none" xmlns="http://www.w3.org/2000/svg">
<path d="M15.7812 4.89481V2.0625C15.7812 1.39047 15.2345 0.84375 14.5625 0.84375H12.3485C11.6738 0.84375 11.125 1.39263 11.125 2.06725V2.34375C11.125 2.51634 11.2649 2.65625 11.4375 2.65625H13.875C13.9267 2.65625 13.9688 2.69831 13.9688 2.75V4.84416H1.47006C0.917938 4.84416 0.46875 5.29334 0.46875 5.84547C0.46875 6.288 0.757406 6.66416 1.15625 6.79613V9.50628C1.15625 10.9898 2.26388 12.2193 3.69553 12.4116L3.48616 12.621C3.36412 12.743 3.36412 12.9409 3.48616 13.0629C3.51514 13.092 3.54958 13.115 3.58751 13.1307C3.62543 13.1464 3.66608 13.1545 3.70712 13.1544C3.74817 13.1545 3.78882 13.1464 3.82674 13.1307C3.86466 13.115 3.89911 13.092 3.92809 13.0629L4.55306 12.4379H12.3844L13.0094 13.0629C13.0384 13.092 13.0728 13.115 13.1107 13.1307C13.1486 13.1464 13.1893 13.1545 13.2303 13.1544C13.2714 13.1545 13.312 13.1464 13.35 13.1307C13.3879 13.115 13.4223 13.092 13.4513 13.0629C13.5733 12.9409 13.5734 12.743 13.4513 12.621L13.2419 12.4116C14.6736 12.2193 15.7812 10.9898 15.7812 9.50628V6.79613C16.1801 6.66416 16.4688 6.288 16.4688 5.84547C16.4688 5.40294 16.1801 5.02681 15.7812 4.89481ZM13.875 2.03125H11.7511C11.7697 1.71794 12.0306 1.46875 12.3485 1.46875H14.5625C14.8899 1.46875 15.1562 1.73509 15.1562 2.0625V4.84375H14.5938V2.75C14.5938 2.35369 14.2713 2.03125 13.875 2.03125ZM2.78125 5.46916H8.15625V9.55578L8.11219 9.53294C7.70891 9.32381 7.22731 9.32381 6.82331 9.53325L6.82113 9.53441C6.71151 9.59116 6.58985 9.6207 6.46642 9.62051C6.34298 9.62033 6.22141 9.59043 6.11197 9.53334C5.9133 9.42962 5.69249 9.37547 5.46838 9.37553C5.24481 9.37542 5.02454 9.42939 4.82634 9.53281C4.71639 9.58974 4.59439 9.6195 4.47057 9.6196C4.34675 9.6197 4.2247 9.59013 4.11466 9.53337L4.11337 9.53272C3.91431 9.42965 3.69342 9.37585 3.46925 9.37585C3.24509 9.37584 3.02419 9.42963 2.82512 9.53269L2.78125 9.55541V5.46916ZM1.09375 5.84544C1.09375 5.63797 1.26256 5.46916 1.47006 5.46916H2.15625V6.22175H1.47006C1.26256 6.22175 1.09375 6.05294 1.09375 5.84544ZM15.1562 9.50628C15.1562 10.7782 14.1215 11.8129 12.8496 11.8129H4.08787C2.816 11.8129 1.78125 10.7782 1.78125 9.50628V6.84678H2.15625V10.0409C2.15625 10.1553 2.21697 10.2633 2.31469 10.3228C2.36315 10.352 2.41829 10.3684 2.47486 10.3703C2.53144 10.3722 2.58756 10.3597 2.63791 10.3338L3.11284 10.0875C3.2228 10.0306 3.34478 10.0008 3.4686 10.0007C3.59241 10.0006 3.71445 10.0302 3.8245 10.0869L3.82581 10.0876C4.22916 10.2967 4.71072 10.2967 5.11309 10.0881L5.11672 10.0862C5.22582 10.0297 5.34692 10.0003 5.46979 10.0005C5.59265 10.0007 5.71366 10.0305 5.82259 10.0873C6.0212 10.1909 6.24183 10.2451 6.46582 10.2454C6.68981 10.2456 6.91058 10.192 7.10944 10.0889L7.11163 10.0878C7.22178 10.0307 7.344 10.001 7.46803 10.001C7.59206 10.001 7.71429 10.0307 7.82444 10.0878L8.29944 10.3341C8.34635 10.3583 8.3984 10.371 8.45122 10.3709C8.51164 10.371 8.57092 10.3545 8.62263 10.3232C8.67092 10.2937 8.71084 10.2522 8.73859 10.2029C8.76635 10.1536 8.78101 10.0979 8.78119 10.0413V6.84678H15.1562V9.50628ZM15.4674 6.22178H8.78125V5.46919H15.4674C15.6749 5.46919 15.8438 5.638 15.8438 5.8455C15.8438 6.05297 15.6749 6.22178 15.4674 6.22178Z" fill="black"/>
</svg>
