<svg width="13" height="17" viewBox="0 0 13 17" fill="none" xmlns="http://www.w3.org/2000/svg">
<path d="M11.2233 7.59281L11.1367 7.54948V3.77948C11.1367 3.25948 10.9489 2.80448 10.5733 2.41448C10.1978 2.02448 9.75 1.82948 9.23 1.82948H2.29667C1.77667 1.82948 1.32889 2.02448 0.953333 2.41448C0.577778 2.80448 0.39 3.25948 0.39 3.77948V7.54948L0.346667 7.59281C0.115556 7.82392 0 8.09837 0 8.41615V11.4928C0 11.5795 0.0361111 11.6661 0.108333 11.7528C0.180556 11.8395 0.274444 11.8828 0.39 11.8828H2.29667C2.44111 11.8828 2.54222 11.825 2.6 11.7095L3.29333 10.7128H8.27667L8.92667 11.7095C8.98444 11.825 9.08556 11.8828 9.23 11.8828H11.18C11.2667 11.8828 11.3461 11.8395 11.4183 11.7528C11.4906 11.6661 11.5267 11.5795 11.5267 11.4928V8.41615C11.5267 8.09837 11.4256 7.82392 11.2233 7.59281ZM2.29667 2.60948H9.23C9.54778 2.60948 9.82222 2.72503 10.0533 2.95615C10.2844 3.18726 10.4 3.4617 10.4 3.77948V6.07615C10.2267 5.84503 10.0028 5.65726 9.72833 5.51281C9.45389 5.36837 9.15778 5.31059 8.84 5.33948H2.68667C2.13778 5.31059 1.69 5.48392 1.34333 5.85948L1.12667 6.11948V3.77948C1.12667 3.4617 1.24222 3.18726 1.47333 2.95615C1.70444 2.72503 1.97889 2.60948 2.29667 2.60948ZM10.01 7.24615H1.51667C1.51667 6.92837 1.63222 6.65392 1.86333 6.42281C2.09444 6.1917 2.36889 6.07615 2.68667 6.07615H8.84C9.15778 6.07615 9.43222 6.1917 9.66333 6.42281C9.89444 6.65392 10.01 6.92837 10.01 7.24615ZM10.79 11.1028H9.44667L8.79667 10.1061C8.71 9.99059 8.59444 9.93281 8.45 9.93281H3.07667C2.93222 9.93281 2.81667 9.99059 2.73 10.1061L2.08 11.1028H0.736667V8.41615C0.736667 8.30059 0.78 8.2067 0.866667 8.13448C0.953333 8.06226 1.04 8.02615 1.12667 8.02615H10.4C10.4867 8.02615 10.5733 8.06226 10.66 8.13448C10.7467 8.2067 10.79 8.30059 10.79 8.41615V11.1028Z" fill="#181A20"/>
</svg>
