<svg width="20" height="20" viewBox="0 0 20 20" fill="none" xmlns="http://www.w3.org/2000/svg">
<path d="M17.6567 11.245C16.5663 12.3351 14.5147 12.2927 11.369 12.2927C9.34526 12.2928 7.70439 10.6494 7.70335 8.62569C7.70335 5.48215 7.66096 3.4294 8.7513 2.33924C9.84163 1.24908 10.3232 1.29322 15.1532 1.29322C15.62 1.29122 15.8549 1.8557 15.5249 2.18575L13.038 4.67284C12.4068 5.30414 12.405 6.3276 13.0364 6.95881C13.6677 7.59003 14.6912 7.59009 15.3226 6.95897L17.8102 4.47247C18.1403 4.14251 18.7049 4.3774 18.7029 4.84409C18.7029 9.67333 18.747 10.1548 17.6567 11.245Z" stroke="#141B34" stroke-width="1.5"/>
<path d="M11.3724 12.2917L5.71512 17.9489C4.7026 18.9615 3.06098 18.9615 2.04845 17.9489C1.03593 16.9364 1.03593 15.2948 2.04845 14.2823L7.70573 8.625" stroke="#141B34" stroke-width="1.5" stroke-linecap="round"/>
<path d="M4.04728 15.9609H4.03906" stroke="#141B34" stroke-width="2" stroke-linecap="round" stroke-linejoin="round"/>
</svg>
