<svg width="21" height="21" viewBox="0 0 21 21" fill="none" xmlns="http://www.w3.org/2000/svg">
<path d="M3.30542 10.4496C2.4759 9.00314 2.07537 7.82204 1.83386 6.62481C1.47667 4.85413 2.29408 3.12446 3.64821 2.02079C4.22052 1.55434 4.87658 1.7137 5.215 2.32085L5.97904 3.69154C6.58463 4.77799 6.88742 5.32122 6.82737 5.89714C6.76731 6.47307 6.35895 6.94213 5.54223 7.88025L3.30542 10.4496ZM3.30542 10.4496C4.98444 13.3772 7.61936 16.0136 10.5504 17.6946M10.5504 17.6946C11.9969 18.5241 13.178 18.9246 14.3752 19.1661C16.1459 19.5233 17.8755 18.7059 18.9792 17.3518C19.4457 16.7795 19.2863 16.1234 18.6792 15.785L17.3085 15.021C16.222 14.4154 15.6788 14.1126 15.1029 14.1726C14.5269 14.2327 14.0579 14.6411 13.1197 15.4578L10.5504 17.6946Z" stroke="#4081FF" stroke-width="1.5" stroke-linejoin="round"/>
</svg>
