<svg width="22" height="16" viewBox="0 0 22 16" fill="none" xmlns="http://www.w3.org/2000/svg">
<path d="M8 13C8 14.1046 7.10457 15 6 15C4.89543 15 4 14.1046 4 13C4 11.8954 4.89543 11 6 11C7.10457 11 8 11.8954 8 13Z" stroke="#080127" stroke-width="1.2"/>
<path d="M18 13C18 14.1046 17.1046 15 16 15C14.8954 15 14 14.1046 14 13C14 11.8954 14.8954 11 16 11C17.1046 11 18 11.8954 18 13Z" stroke="#080127" stroke-width="1.2"/>
<path d="M1 6H17" stroke="#080127" stroke-width="1.2" stroke-linecap="round"/>
<path d="M18 12.4C17.6686 12.4 17.4 12.6686 17.4 13C17.4 13.3314 17.6686 13.6 18 13.6V12.4ZM1 0.4C0.668629 0.4 0.4 0.668629 0.4 1C0.4 1.33137 0.668629 1.6 1 1.6V0.4ZM13.3235 1.33906L13.0464 1.87125L13.3235 1.33906ZM20.8342 8.33713L20.274 8.55201V8.55202L20.8342 8.33713ZM20.7071 12.7071L21.1314 13.1314L21.1314 13.1314L20.7071 12.7071ZM16.818 5.65382L16.3967 6.08107L16.3967 6.08107L16.818 5.65382ZM3.42426 1.42426C3.65858 1.18995 3.65858 0.810051 3.42426 0.575736C3.18995 0.341421 2.81005 0.341421 2.57574 0.575736L3.42426 1.42426ZM1.14935 11.9077L1.65974 11.5923L1.65974 11.5923L1.14935 11.9077ZM3.86215 13.5839C4.18465 13.6601 4.50782 13.4604 4.58395 13.1379C4.66008 12.8153 4.46036 12.4922 4.13785 12.4161L3.86215 13.5839ZM8 12.4C7.66863 12.4 7.4 12.6686 7.4 13C7.4 13.3314 7.66863 13.6 8 13.6V12.4ZM14 13.6C14.3314 13.6 14.6 13.3314 14.6 13C14.6 12.6686 14.3314 12.4 14 12.4V13.6ZM18 13.6H19V12.4H18V13.6ZM21.6 11V10.2797H20.4V11H21.6ZM10.3761 0.4H1V1.6H10.3761V0.4ZM10.3761 1.6C11.1522 1.6 11.6945 1.60057 12.125 1.6399C12.5435 1.67811 12.8138 1.75014 13.0464 1.87125L13.6006 0.806877C13.1819 0.588925 12.7439 0.491418 12.2342 0.444869C11.7365 0.399425 11.1307 0.4 10.3761 0.4V1.6ZM21.6 10.2797C21.6 9.32235 21.6096 8.68336 21.3944 8.12224L20.274 8.55202C20.3904 8.85555 20.4 9.22336 20.4 10.2797H21.6ZM19 13.6C19.4544 13.6 19.8556 13.6013 20.1772 13.558C20.5161 13.5125 20.8549 13.4079 21.1314 13.1314L20.2828 12.2828C20.2665 12.2992 20.2231 12.3411 20.0173 12.3687C19.7943 12.3987 19.4884 12.4 19 12.4V13.6ZM20.4 11C20.4 11.4884 20.3987 11.7943 20.3687 12.0173C20.3411 12.2231 20.2992 12.2665 20.2828 12.2828L21.1314 13.1314C21.4079 12.8549 21.5125 12.5161 21.558 12.1772C21.6013 11.8556 21.6 11.4544 21.6 11H20.4ZM17.2392 5.22658C16.668 4.66334 16.2597 3.89605 15.7171 3.02771C15.2047 2.20781 14.5773 1.31542 13.6006 0.806877L13.0464 1.87125C13.7108 2.21716 14.1934 2.8539 14.6994 3.66365C15.1752 4.42494 15.6936 5.38781 16.3967 6.08107L17.2392 5.22658ZM21.3944 8.12224C20.9639 6.99996 20.0402 6.53869 19.2394 6.22024C18.8076 6.04852 18.4633 5.93611 18.0943 5.77102C17.7471 5.61566 17.4625 5.44675 17.2392 5.22658L16.3967 6.08107C16.7635 6.44267 17.1923 6.68205 17.6042 6.86636C17.9944 7.04096 18.4549 7.19963 18.796 7.33529C19.541 7.63156 20.0354 7.93017 20.274 8.55201L21.3944 8.12224ZM2.57574 0.575736C1.97736 1.17411 1.44096 2.28198 1.0632 3.28933C0.86853 3.80845 0.705225 4.33024 0.589789 4.79198C0.47738 5.24162 0.4 5.67442 0.4 6H1.6C1.6 5.82558 1.64762 5.50838 1.75396 5.08302C1.85728 4.66976 2.00647 4.19155 2.1868 3.71067C2.55904 2.71802 3.02264 1.82589 3.42426 1.42426L2.57574 0.575736ZM0.4 6V10.7639H1.6V6H0.4ZM0.4 10.7639C0.4 11.0523 0.39926 11.3139 0.42185 11.5324C0.44587 11.7647 0.499949 11.9982 0.638959 12.2231L1.65974 11.5923C1.6494 11.5755 1.6288 11.5378 1.61549 11.409C1.60074 11.2664 1.6 11.077 1.6 10.7639H0.4ZM4.13785 12.4161C3.90889 12.362 3.63383 12.3163 3.38039 12.2711C3.11566 12.2239 2.85432 12.1741 2.60809 12.1081C2.08212 11.9673 1.78288 11.7915 1.65974 11.5923L0.638959 12.2231C1.02254 12.8438 1.73287 13.116 2.29767 13.2673C2.59682 13.3474 2.90116 13.4046 3.16971 13.4525C3.44954 13.5024 3.67535 13.5399 3.86215 13.5839L4.13785 12.4161ZM8 13.6L14 13.6V12.4L8 12.4V13.6Z" fill="#080127"/>
<path d="M8 6V1" stroke="#080127" stroke-width="1.2" stroke-linecap="round"/>
</svg>
