<svg width="22" height="22" viewBox="0 0 22 22" fill="none" xmlns="http://www.w3.org/2000/svg">
<path d="M13.75 11.9141V12.8307C13.75 15.4235 13.75 16.7198 14.5555 17.5253C15.3609 18.3307 16.6573 18.3307 19.25 18.3307" stroke="#141B34" stroke-width="1.5" stroke-linejoin="round"/>
<path d="M18.9688 16.5L18.9687 20.1667" stroke="#141B34" stroke-width="1.5" stroke-linecap="round" stroke-linejoin="round"/>
<path d="M8.25521 9.92672L7.76279 9.98148C7.02608 10.0634 6.65772 10.1044 6.36429 10.0725C4.93209 9.91728 3.80324 8.64817 3.67936 7.05399C3.65397 6.72737 3.69485 6.31825 3.77662 5.5" stroke="#141B34" stroke-width="1.5" stroke-linejoin="round"/>
<path d="M12.5547 6.41406H12.5629" stroke="#141B34" stroke-width="2" stroke-linecap="round" stroke-linejoin="round"/>
<path d="M15.5859 6.41406L19.7109 6.41406" stroke="#141B34" stroke-width="1.5" stroke-linecap="round" stroke-linejoin="round"/>
<path d="M2.06144 3.87084C1.85792 3.04874 1.75616 2.63769 1.91094 2.33171C1.96358 2.22764 2.03544 2.13469 2.12265 2.05788C2.37906 1.83203 2.79862 1.83203 3.63774 1.83203H15.1769C17.9341 1.83203 20.1693 4.08926 20.1693 6.8737C20.1693 9.65813 17.9341 11.9154 15.1769 11.9154H10.824C10.0761 11.9154 9.70214 11.9154 9.38091 11.7873C9.13319 11.6885 8.91003 11.536 8.72724 11.3404C8.49019 11.0867 8.35131 10.7361 8.07355 10.0349L7.5809 8.79107C7.296 8.07179 7.15355 7.71216 6.89006 7.44607C6.62657 7.17998 6.27045 7.03613 5.5582 6.74842L4.00716 6.12188C3.34097 5.85277 3.00787 5.71822 2.75787 5.48117C2.67022 5.39806 2.59097 5.30637 2.52127 5.20745C2.32247 4.92526 2.23546 4.57379 2.06144 3.87084Z" stroke="#141B34" stroke-width="1.5" stroke-linejoin="round"/>
</svg>
