<svg width="10" height="12" viewBox="0 0 10 12" fill="none" xmlns="http://www.w3.org/2000/svg">
<path d="M0.759096 5.15288C0.565065 4.61588 0.468049 4.34738 0.509418 4.17532C0.554666 3.98713 0.688498 3.84042 0.859565 3.79148C1.01597 3.74673 1.25926 3.85487 1.74586 4.07114C2.17627 4.26243 2.39147 4.35808 2.59366 4.35275C2.81628 4.3469 3.03044 4.25762 3.2008 4.09965C3.35552 3.95619 3.45931 3.72756 3.66687 3.27032L4.1243 2.26263C4.5064 1.42088 4.69745 1 5 1C5.30255 1 5.4936 1.42088 5.8757 2.26263L6.33313 3.27032C6.54069 3.72756 6.64448 3.95619 6.7992 4.09965C6.96956 4.25762 7.18372 4.3469 7.40634 4.35275C7.60853 4.35808 7.82373 4.26243 8.25414 4.07114C8.74074 3.85487 8.98404 3.74673 9.14044 3.79148C9.3115 3.84042 9.44533 3.98713 9.49058 4.17532C9.53195 4.34738 9.43494 4.61588 9.24091 5.15287L8.40689 7.46109C8.05012 8.44848 7.87173 8.94218 7.49842 9.22109C7.12511 9.5 6.6427 9.5 5.67788 9.5H4.32212C3.3573 9.5 2.87489 9.5 2.50158 9.22109C2.12827 8.94218 1.94988 8.44848 1.59311 7.46109L0.759096 5.15288Z" stroke="#33645B"/>
<path d="M5 7H5.00449" stroke="#33645B" stroke-width="1.2" stroke-linecap="round" stroke-linejoin="round"/>
<path d="M2.5 11H7.5" stroke="#33645B" stroke-linecap="round"/>
</svg>
