<svg width="22" height="22" viewBox="0 0 22 22" fill="none" xmlns="http://www.w3.org/2000/svg">
<path d="M12.8307 11.0013C12.8307 12.0138 12.0099 12.8346 10.9974 12.8346C9.98487 12.8346 9.16406 12.0138 9.16406 11.0013C9.16406 9.98878 9.98487 9.16797 10.9974 9.16797C12.0099 9.16797 12.8307 9.98878 12.8307 11.0013Z" stroke="#141B34" stroke-width="1.5" stroke-linecap="round" stroke-linejoin="round"/>
<path d="M18.3281 9.16797V4.58464C18.3281 4.15251 18.3281 3.93645 18.1939 3.80221C18.0596 3.66797 17.8436 3.66797 17.4115 3.66797H12.8281" stroke="#141B34" stroke-width="1.5" stroke-linecap="round" stroke-linejoin="round"/>
<path d="M9.16406 18.3359H4.58073C4.14861 18.3359 3.93255 18.3359 3.79831 18.2017C3.66406 18.0675 3.66406 17.8514 3.66406 17.4193V12.8359" stroke="#141B34" stroke-width="1.5" stroke-linecap="round" stroke-linejoin="round"/>
</svg>
