<svg width="16" height="16" viewBox="0 0 16 16" fill="none" xmlns="http://www.w3.org/2000/svg">
<path d="M13.75 5.875H13.5V3.875C13.4992 3.185 12.94 2.62581 12.25 2.625H3.75C3.06 2.62581 2.50081 3.185 2.5 3.875V5.875H2.25C1.008 5.8765 0.0015 6.883 0 8.125V11.625H0.5V13.375H1.75V11.625H14.25V13.375H15.5V11.625H16V8.125C15.9985 6.883 14.992 5.8765 13.75 5.875ZM3 3.875C3 3.46078 3.33578 3.125 3.75 3.125H12.25C12.6642 3.125 13 3.46078 13 3.875V5.875H12.25V4.875C12.25 4.46078 11.9142 4.125 11.5 4.125H9.25C8.83578 4.125 8.5 4.46078 8.5 4.875V5.875H7.5V4.875C7.5 4.46078 7.16422 4.125 6.75 4.125H4.5C4.08578 4.125 3.75 4.46078 3.75 4.875V5.875H3V3.875ZM11.75 4.875V5.875H9V4.875C9 4.8087 9.02634 4.74511 9.07322 4.69822C9.12011 4.65134 9.1837 4.625 9.25 4.625H11.5C11.5663 4.625 11.6299 4.65134 11.6768 4.69822C11.7237 4.74511 11.75 4.8087 11.75 4.875ZM7 4.875V5.875H4.25V4.875C4.25 4.8087 4.27634 4.74511 4.32322 4.69822C4.37011 4.65134 4.4337 4.625 4.5 4.625H6.75C6.8163 4.625 6.87989 4.65134 6.92678 4.69822C6.97366 4.74511 7 4.8087 7 4.875ZM1.25 12.875H1V11.625H1.25V12.875ZM15 12.875H14.75V11.625H15V12.875ZM15.5 11.125H0.5V9.875H15.5V11.125ZM15.5 9.375H0.5V8.125C0.501094 7.15897 1.28397 6.37609 2.25 6.375H13.75C14.716 6.37609 15.4989 7.15897 15.5 8.125V9.375Z" fill="black"/>
</svg>
