<svg width="14" height="14" viewBox="0 0 14 14" fill="none" xmlns="http://www.w3.org/2000/svg">
<path d="M0.469451 2.59725H1.47501C1.68486 3.40471 2.41391 4.0056 3.28615 4.0056C4.15839 4.0056 4.88745 3.40471 5.09729 2.59725H12.6752C12.9348 2.59725 13.1446 2.38694 13.1446 2.1278C13.1446 1.86867 12.9348 1.65835 12.6752 1.65835H5.09729C4.88745 0.850897 4.15839 0.25 3.28615 0.25C2.41391 0.25 1.68486 0.850897 1.47501 1.65835H0.469451C0.210314 1.65835 0 1.86867 0 2.1278C0 2.38694 0.210314 2.59725 0.469451 2.59725ZM3.28615 1.1889C3.80396 1.1889 4.22505 1.61 4.22505 2.1278C4.22505 2.64561 3.80396 3.0667 3.28615 3.0667C2.76835 3.0667 2.34725 2.64561 2.34725 2.1278C2.34725 1.61 2.76835 1.1889 3.28615 1.1889Z" fill="#636363"/>
<path d="M12.6752 6.35366H11.6696C11.4598 5.54621 10.7312 4.94531 9.85846 4.94531C8.98575 4.94531 8.25717 5.54621 8.04732 6.35366H0.469451C0.210314 6.35366 0 6.56398 0 6.82311C0 7.08225 0.210314 7.29257 0.469451 7.29257H8.04732C8.25717 8.10002 8.98575 8.70092 9.85846 8.70092C10.7312 8.70092 11.4598 8.10002 11.6696 7.29257H12.6752C12.9348 7.29257 13.1446 7.08225 13.1446 6.82311C13.1446 6.56398 12.9348 6.35366 12.6752 6.35366ZM9.85846 7.76202C9.34066 7.76202 8.91956 7.34092 8.91956 6.82311C8.91956 6.30531 9.34066 5.88421 9.85846 5.88421C10.3763 5.88421 10.7974 6.30531 10.7974 6.82311C10.7974 7.34092 10.3763 7.76202 9.85846 7.76202Z" fill="#636363"/>
<path d="M12.6752 11.049H5.09729C4.88745 10.2415 4.15839 9.64062 3.28615 9.64062C2.41391 9.64062 1.68486 10.2415 1.47501 11.049H0.469451C0.210314 11.049 0 11.2593 0 11.5184C0 11.7776 0.210314 11.9879 0.469451 11.9879H1.47501C1.68486 12.7953 2.41391 13.3962 3.28615 13.3962C4.15839 13.3962 4.88745 12.7953 5.09729 11.9879H12.6752C12.9348 11.9879 13.1446 11.7776 13.1446 11.5184C13.1446 11.2593 12.9348 11.049 12.6752 11.049ZM3.28615 12.4573C2.76835 12.4573 2.34725 12.0362 2.34725 11.5184C2.34725 11.0006 2.76835 10.5795 3.28615 10.5795C3.80396 10.5795 4.22505 11.0006 4.22505 11.5184C4.22505 12.0362 3.80396 12.4573 3.28615 12.4573Z" fill="#636363"/>
</svg>
