<svg width="15" height="15" viewBox="0 0 15 15" fill="none" xmlns="http://www.w3.org/2000/svg">
<g clip-path="url(#clip0_390_54784)">
<path d="M12.12 10.6692C12.12 11.2292 11.9178 11.7114 11.5133 12.1158C11.1089 12.5203 10.6111 12.7225 10.02 12.7225H3.39333C2.83333 12.7225 2.35111 12.5203 1.94667 12.1158C1.54222 11.7114 1.34 11.2292 1.34 10.6692V4.0425C1.30889 3.45139 1.49556 2.95361 1.9 2.54917C2.30444 2.14472 2.80222 1.9425 3.39333 1.9425H7.12667V1.14917H3.39333C3.02 1.14917 2.65444 1.21917 2.29667 1.35917C1.93889 1.49917 1.62 1.70917 1.34 1.98917C1.06 2.26917 0.85 2.58806 0.71 2.94583C0.57 3.30361 0.5 3.66917 0.5 4.0425V10.6692C0.5 11.0425 0.57 11.4081 0.71 11.7658C0.85 12.1236 1.06 12.4425 1.34 12.7225C1.62 13.0025 1.93889 13.2125 2.29667 13.3525C2.65444 13.4925 3.02 13.5625 3.39333 13.5625H10.02C10.3933 13.5625 10.7589 13.4925 11.1167 13.3525C11.4744 13.2125 11.7933 13.0025 12.0733 12.7225C12.3533 12.4425 12.5633 12.1236 12.7033 11.7658C12.8433 11.4081 12.9133 11.0425 12.9133 10.6692V6.93583H12.12V10.6692ZM12.4933 1.14917H8.76V1.9425H11.5133L6.42667 7.07583L6.98667 7.63583L12.12 2.54917V5.25583H12.9133V1.56917C12.9133 1.44472 12.8744 1.34361 12.7967 1.26583C12.7189 1.18806 12.6178 1.14917 12.4933 1.14917Z" fill="#181A20"/>
</g>
<defs>
<clipPath id="clip0_390_54784">
<rect width="14" height="14" fill="white" transform="matrix(1 0 0 -1 0.5 14.3594)"/>
</clipPath>
</defs>
</svg>
