<svg width="18" height="22" viewBox="0 0 18 22" fill="none" xmlns="http://www.w3.org/2000/svg">
<path d="M8.6 3.5C8.6 3.16863 8.33137 2.9 8 2.9C7.66863 2.9 7.4 3.16863 7.4 3.5H8.6ZM7.4 18C7.4 18.3314 7.66863 18.6 8 18.6C8.33137 18.6 8.6 18.3314 8.6 18H7.4ZM7.4 3.5V18H8.6V3.5H7.4Z" fill="#141B34"/>
<path d="M5.5 16C2.85114 16.3971 1 17.3716 1 18.4268C1 19.8479 4.35786 21 8.5 21C12.6421 21 16 19.8479 16 18.4268C16 17.3064 13.913 16.3532 11 16" stroke="#141B34" stroke-width="1.2" stroke-linecap="round"/>
<path d="M12.3187 2.14389L12.0557 2.68317L12.3187 2.14389ZM13.2127 2.57992L12.9497 3.1192V3.1192L13.2127 2.57992ZM8 11H7.4C7.4 11.2069 7.50659 11.3992 7.68204 11.5088C7.85749 11.6185 8.07705 11.63 8.263 11.5393L8 11ZM13.2127 8.45783L12.9497 7.91855L13.2127 8.45783ZM12.0557 2.68317L12.9497 3.1192L13.4757 2.04063L12.5817 1.6046L12.0557 2.68317ZM12.9497 3.1192C14.2321 3.74458 15.1255 4.1824 15.7078 4.59228C16.2792 4.99452 16.4 5.2646 16.4 5.51887H17.6C17.6 4.68117 17.0895 4.09743 16.3986 3.61102C15.7184 3.13225 14.7182 2.64658 13.4757 2.04063L12.9497 3.1192ZM8.263 11.5393L13.4757 8.99712L12.9497 7.91855L7.737 10.4607L8.263 11.5393ZM13.4757 8.99712C14.7182 8.39117 15.7184 7.9055 16.3986 7.42673C17.0896 6.94032 17.6 6.35658 17.6 5.51887H16.4C16.4 5.77315 16.2792 6.04322 15.7078 6.44547C15.1255 6.85535 14.2321 7.29317 12.9497 7.91855L13.4757 8.99712ZM7.4 4.82929V11H8.6V4.82929H7.4ZM12.5817 1.6046C11.6307 1.14084 10.8567 0.761583 10.2315 0.563585C9.59766 0.362822 8.96481 0.297796 8.38913 0.655763L9.02279 1.67482C9.15307 1.59381 9.35765 1.54556 9.86919 1.70758C10.3895 1.87236 11.0688 2.20189 12.0557 2.68317L12.5817 1.6046ZM8.6 4.82929C8.6 3.73417 8.6016 2.9817 8.6817 2.44405C8.76036 1.91598 8.89319 1.75541 9.02279 1.67482L8.38913 0.655763C7.81277 1.01415 7.59262 1.61056 7.49479 2.26724C7.3984 2.91435 7.4 3.77439 7.4 4.82929H8.6Z" fill="#141B34"/>
</svg>
