<svg width="24" height="24" viewBox="0 0 24 24" fill="none" xmlns="http://www.w3.org/2000/svg">
<path d="M12.5142 0.586831C13.256 0.0345205 14.1942 -0.133574 15.0669 0.106561C15.8742 0.322683 16.5942 0.947034 17.0305 1.73948C17.5542 2.72403 17.5978 3.99675 17.1396 5.00532C17.9251 5.05334 18.6887 5.38953 19.2341 5.98987C19.8668 6.66225 20.2159 7.59877 20.1941 8.55931C20.1723 9.51985 19.7796 10.4564 19.1469 11.0807C18.4923 11.7531 17.576 12.0653 16.6814 11.9692C15.9396 11.8972 15.2633 11.489 14.7397 10.9126C14.7397 13.6022 14.7397 16.2917 14.7397 19.0052C15.0451 19.0052 15.3506 19.0052 15.6342 19.0052C15.656 17.6844 15.6342 16.3637 15.6342 15.067C15.6342 14.4666 16.0705 13.9864 16.616 13.9864C17.3142 13.9864 18.0342 13.9864 18.7323 13.9864C19.0814 13.9864 19.3869 14.1785 19.5614 14.5147C21.0014 17.1321 22.4195 19.7736 23.8595 22.3911C24.2522 23.1115 23.7722 24 23.0304 24C15.6778 24 8.32521 24 0.9726 24C0.208976 24 -0.249199 23.0875 0.143522 22.3911C1.5835 19.7736 3.00166 17.1321 4.44164 14.5147C4.61618 14.2025 4.94345 13.9864 5.27072 13.9864C7.49613 13.9864 9.72155 13.9864 11.947 13.9864C12.4924 13.9864 12.9288 14.4666 12.9288 15.067C12.9288 16.3877 12.9288 17.6844 12.9288 19.0052C13.2342 19.0052 13.5397 19.0052 13.8451 19.0052C13.8451 16.3157 13.8451 13.6262 13.8451 10.9126C13.3433 11.489 12.6451 11.8732 11.9252 11.9692C11.0961 12.0893 10.2234 11.8011 9.56883 11.2008C9.02338 10.7205 8.63066 10.0241 8.47794 9.27972C8.25976 8.24714 8.49975 7.09449 9.11065 6.27803C9.67792 5.5096 10.5506 5.02933 11.4452 4.9813C11.1179 4.2609 11.0306 3.39641 11.227 2.62798C11.3579 1.83553 11.8597 1.0671 12.5142 0.586831Z" fill="#373373"/>
</svg>
