<svg width="24" height="24" viewBox="0 0 24 24" fill="none" xmlns="http://www.w3.org/2000/svg">
<g clip-path="url(#clip0_1891_3101)">
<path d="M21.8848 10.199C22 10.2667 22.1115 10.3344 22.2207 10.4019V8.14666C23.1406 7.85041 23.8082 6.98664 23.8082 5.96955V2.7947C23.8082 1.53372 22.7822 0.507812 21.5213 0.507812C20.2603 0.507812 19.2344 1.53372 19.2344 2.7947V5.96959C19.2344 6.98669 19.902 7.85045 20.8218 8.1467V9.62406C21.2098 9.81705 21.5646 10.0109 21.8848 10.199Z" fill="#373373"/>
<path d="M3.17391 9.62401V8.14666C4.09378 7.85041 4.76133 6.98664 4.76133 5.96955V2.7947C4.76133 1.53372 3.73542 0.507812 2.47444 0.507812C1.21345 0.507812 0.1875 1.53367 0.1875 2.7947V5.96959C0.1875 6.98669 0.855094 7.85045 1.77492 8.1467V10.4019C1.88414 10.3344 1.99566 10.2667 2.11083 10.1991C2.43103 10.0109 2.78583 9.81705 3.17391 9.62401Z" fill="#373373"/>
<path d="M11.3008 7.62691V6.35144C11.3008 5.96514 11.6139 5.65197 12.0002 5.65197C12.3865 5.65197 12.6997 5.96514 12.6997 6.35144V7.62691C13.839 7.66347 14.8984 7.78699 15.8746 7.97093V5.31016C15.9879 5.36805 16.1107 5.39641 16.2328 5.39641C16.4731 5.39641 16.7104 5.28719 16.8657 5.08019C17.1277 4.73097 17.0569 4.23555 16.7077 3.97361L12.4745 0.798723C12.1935 0.587926 11.807 0.587926 11.526 0.798723L7.29278 3.97361C6.94356 4.23555 6.87278 4.73097 7.13467 5.08019C7.36885 5.39247 7.7896 5.4813 8.12584 5.30941V7.97093C9.10206 7.78703 10.1615 7.66347 11.3008 7.62691Z" fill="#373373"/>
<path d="M12.0023 14.1461C14.6131 12.6076 17.5418 11.5784 20.6425 11.1002C18.7632 10.0929 15.8533 9.01562 12.0023 9.01562C8.26042 9.01562 5.38239 10.0193 3.36719 11.101C6.46609 11.5795 9.39297 12.6085 12.0023 14.1461Z" fill="#373373"/>
<path d="M23.9965 12.2031C20.1318 12.3123 16.4641 13.3233 13.3516 15.0134C14.8864 16.0729 16.2405 17.2971 17.3844 18.6625C18.6314 20.1512 19.6005 21.7745 20.2712 23.4937H23.297C23.6833 23.4937 23.9965 23.1805 23.9965 22.7943V12.2031Z" fill="#373373"/>
<path d="M0 15.5767C2.35894 15.7106 4.58644 16.5223 6.47981 17.9448C8.35158 19.351 9.77958 21.3067 10.5425 23.4937H18.7628C15.9336 16.9731 8.43497 12.4414 0 12.2031V15.5767Z" fill="#373373"/>
<path d="M9.04931 23.4914C7.56427 19.8107 4.01522 17.2454 0 16.9766V22.7919C0 23.1782 0.313172 23.4913 0.699469 23.4913L9.04931 23.4914Z" fill="#373373"/>
</g>
<defs>
<clipPath id="clip0_1891_3101">
<rect width="24" height="24" fill="white"/>
</clipPath>
</defs>
</svg>
