<svg width="24" height="24" viewBox="0 0 24 24" fill="none" xmlns="http://www.w3.org/2000/svg">
<g clip-path="url(#clip0_1891_3090)">
<path d="M7.26562 0H0.703125C0.314812 0 0 0.314812 0 0.703125V2.34375H7.96875V0.703125C7.96875 0.314812 7.65394 0 7.26562 0Z" fill="#373373"/>
<path d="M23.6467 6.70261C23.4282 6.57727 23.1594 6.57834 22.9419 6.70556L15.9844 10.7743V7.3125C15.9844 7.06059 15.8496 6.82795 15.6311 6.70261C15.4126 6.57727 15.1438 6.57834 14.9263 6.70556L7.96875 10.7743V3.75H0V23.2969C0 23.6852 0.314812 24 0.703125 24H23.2969C23.6852 24 24 23.6852 24 23.2969V7.3125C24 7.06059 23.8652 6.82795 23.6467 6.70261ZM10.7812 19.0547C10.7812 19.443 10.4664 19.7578 10.0781 19.7578H7.26562C6.87731 19.7578 6.5625 19.443 6.5625 19.0547V16.2422C6.5625 15.8539 6.87731 15.5391 7.26562 15.5391H10.0781C10.4664 15.5391 10.7812 15.8539 10.7812 16.2422V19.0547ZM18.7969 19.0547C18.7969 19.443 18.4821 19.7578 18.0938 19.7578H15.2812C14.8929 19.7578 14.5781 19.443 14.5781 19.0547V16.2422C14.5781 15.8539 14.8929 15.5391 15.2812 15.5391H18.0938C18.4821 15.5391 18.7969 15.8539 18.7969 16.2422V19.0547Z" fill="#373373"/>
</g>
<defs>
<clipPath id="clip0_1891_3090">
<rect width="24" height="24" fill="white"/>
</clipPath>
</defs>
</svg>
