<svg width="24" height="24" viewBox="0 0 24 24" fill="none" xmlns="http://www.w3.org/2000/svg">
<path d="M23.5969 10.6627L12.8289 0.339866C12.3563 -0.113305 11.6435 -0.113256 11.1711 0.339817L0.403032 10.6628C0.0244238 11.0258 -0.100638 11.585 0.0843299 12.0875C0.269345 12.59 0.719812 12.9146 1.23201 12.9146C2.18185 12.9146 2.95185 13.7247 2.95185 14.7241V23.2574C2.95185 23.6675 3.26788 24 3.65765 24H9.55984C9.94961 24 10.2656 23.6675 10.2656 23.2574V18.8024C10.2656 17.7946 11.0422 16.9776 12.0001 16.9776C12.9579 16.9776 13.7345 17.7946 13.7345 18.8024V23.2574C13.7345 23.6675 14.0505 24 14.4403 24H20.3422C20.7319 24 21.048 23.6676 21.048 23.2574V14.7244C21.048 13.7249 21.8181 12.9146 22.7681 12.9146C23.2803 12.9146 23.7308 12.5899 23.9158 12.0875C24.1006 11.585 23.9755 11.0258 23.5969 10.6627Z" fill="#373373"/>
<path d="M20.8636 1.48219H16.1236L21.5694 6.69181V2.22471C21.5694 1.81464 21.2534 1.48219 20.8636 1.48219Z" fill="#373373"/>
</svg>
