<svg width="24" height="24" xmlns="http://www.w3.org/2000/svg" fill-rule="evenodd" clip-rule="evenodd"><path d="M8.829 19c-.412 1.165-1.524 2-2.829 2-1.446 0-2.654-1.025-2.937-2.387l-2.259-.452c-.468-.094-.804-.504-.804-.981v-10.18c0-.53.211-1.039.586-1.414s.884-.586 1.414-.586h4c0-.552.448-1 1-1h9c.552 0 1 .448 1 1h4c1.657 0 3 1.343 3 3v10c0 .552-.448 1-1 1h-3.171c-.412 1.165-1.524 2-2.829 2-1.305 0-2.417-.835-2.829-2h-5.342zm-2.829-2c.552 0 1 .448 1 1s-.448 1-1 1-1-.448-1-1 .448-1 1-1zm11 0c.552 0 1 .448 1 1s-.448 1-1 1-1-.448-1-1 .448-1 1-1zm5-3c-1.565-1.5-3.062-2-6-2v-5h4.5c.828 0 1.5.672 1.5 1.5v5.5zm-7-7h-5v5h5v-5zm-6 0h-5v5h5v-5z"/></svg>