<svg width="24" height="24" viewBox="0 0 24 24" fill="none" xmlns="http://www.w3.org/2000/svg">
<rect width="24" height="24" rx="12" fill="#373373"/>
<mask id="mask0_1891_3115" style="mask-type:alpha" maskUnits="userSpaceOnUse" x="6" y="6" width="12" height="12">
<path d="M17.0003 12.8327H12.8337V16.9993C12.8337 17.4577 12.4587 17.8327 12.0003 17.8327C11.542 17.8327 11.167 17.4577 11.167 16.9993V12.8327H7.00033C6.54199 12.8327 6.16699 12.4577 6.16699 11.9993C6.16699 11.541 6.54199 11.166 7.00033 11.166H11.167V6.99935C11.167 6.54102 11.542 6.16602 12.0003 6.16602C12.4587 6.16602 12.8337 6.54102 12.8337 6.99935V11.166H17.0003C17.4587 11.166 17.8337 11.541 17.8337 11.9993C17.8337 12.4577 17.4587 12.8327 17.0003 12.8327Z" fill="black"/>
</mask>
<g mask="url(#mask0_1891_3115)">
<rect x="2" y="2" width="20" height="20" fill="white"/>
</g>
</svg>
