<svg width="24" height="23" viewBox="0 0 24 23" fill="none" xmlns="http://www.w3.org/2000/svg">
<path d="M9 20.7501V13.3501C9 12.7901 9 12.5101 9.109 12.2961C9.20487 12.1079 9.35785 11.9549 9.546 11.8591C9.76 11.7501 10.04 11.7501 10.6 11.7501H13.4C13.96 11.7501 14.24 11.7501 14.454 11.8591C14.6422 11.9549 14.7951 12.1079 14.891 12.2961C15 12.5101 15 12.7901 15 13.3501V20.7501M2 9.25006L11.04 2.47006C11.384 2.21206 11.556 2.08306 11.745 2.03306C11.9121 1.98898 12.0879 1.98898 12.255 2.03306C12.444 2.08306 12.615 2.21206 12.96 2.47006L22 9.25006M4 7.75006V17.5501C4 18.6701 4 19.2301 4.218 19.6581C4.40974 20.0344 4.71569 20.3403 5.092 20.5321C5.52 20.7501 6.08 20.7501 7.2 20.7501H16.8C17.92 20.7501 18.48 20.7501 18.908 20.5321C19.2843 20.3403 19.5903 20.0344 19.782 19.6581C20 19.2301 20 18.6701 20 17.5501V7.75006L13.92 3.19006C13.232 2.67406 12.887 2.41506 12.51 2.31606C12.1757 2.2279 11.8243 2.2279 11.49 2.31606C11.113 2.41606 10.768 2.67406 10.08 3.19006L4 7.75006Z" stroke="#070026" stroke-width="1.5" stroke-linecap="round" stroke-linejoin="round"/>
</svg>
