<svg width="20" height="24" viewBox="0 0 20 24" fill="none" xmlns="http://www.w3.org/2000/svg">
<path d="M17.071 17.213C18.9477 15.3146 20.0002 12.7529 20.0002 10.0835C20.0002 7.41407 18.9477 4.85233 17.071 2.95397C16.1465 2.0182 15.0454 1.27525 13.8316 0.768176C12.6178 0.261104 11.3155 0 10 0C8.68456 0 7.38219 0.261104 6.1684 0.768176C4.9546 1.27525 3.85353 2.0182 2.92901 2.95397C1.04795 4.85669 -0.00485331 7.42576 1.68214e-05 10.1013C0.00488695 12.7769 1.06704 15.3421 2.95501 17.238L6.53901 20.577C7.45687 21.4845 8.69459 21.9949 9.98532 21.9983C11.2761 22.0017 12.5164 21.4977 13.439 20.595L17.071 17.213ZM11.342 14.649C10.925 14.8555 10.4659 14.9629 10.0005 14.9629C9.53514 14.9629 9.07605 14.8555 8.65901 14.649L6.65901 13.649C6.15943 13.4011 5.73924 13.0184 5.44603 12.544C5.15282 12.0696 4.99832 11.5226 5.00001 10.965V7.99997C4.99804 7.44224 5.15231 6.89511 5.44534 6.42056C5.73838 5.94601 6.15847 5.56302 6.65801 5.31497L8.65801 4.31497C9.07485 4.10779 9.53402 3.99997 9.99951 3.99997C10.465 3.99997 10.9242 4.10779 11.341 4.31497L13.341 5.31497C13.8407 5.56288 14.261 5.94581 14.5542 6.42037C14.8475 6.89493 15.0019 7.44214 15 7.99997V10.966C15.0018 11.5235 14.8474 12.0705 14.5544 12.5448C14.2614 13.0192 13.8414 13.402 13.342 13.65L11.342 14.649ZM12.949 7.69397C12.9818 7.7927 12.999 7.89594 13 7.99997V10.966C13.0008 11.152 12.9494 11.3344 12.8516 11.4926C12.7539 11.6508 12.6137 11.7785 12.447 11.861L10.447 12.861C10.3079 12.93 10.1548 12.966 9.99951 12.966C9.84424 12.966 9.69107 12.93 9.55201 12.861L7.55201 11.861C7.38537 11.7782 7.24529 11.6504 7.1477 11.492C7.05012 11.3336 6.99895 11.151 7.00001 10.965V7.99997C7.0016 7.89796 7.0188 7.79679 7.05101 7.69997L9.23101 8.78997C9.46978 8.90932 9.73306 8.97146 10 8.97146C10.267 8.97146 10.5302 8.90932 10.769 8.78997L12.949 7.69397ZM18 23C18 23.2652 17.8947 23.5195 17.7071 23.7071C17.5196 23.8946 17.2652 24 17 24H3.00001C2.73479 24 2.48044 23.8946 2.2929 23.7071C2.10536 23.5195 2.00001 23.2652 2.00001 23C2.00001 22.7348 2.10536 22.4804 2.2929 22.2929C2.48044 22.1053 2.73479 22 3.00001 22H17C17.2652 22 17.5196 22.1053 17.7071 22.2929C17.8947 22.4804 18 22.7348 18 23Z" fill="#373373"/>
</svg>
