<svg width="12" height="16" viewBox="0 0 12 16" fill="none" xmlns="http://www.w3.org/2000/svg">
<path fill-rule="evenodd" clip-rule="evenodd" d="M1.39919 6.59118C1.12452 3.51855 3.43706 1.4 5.96929 1.4C8.49274 1.4 10.8248 3.67607 10.54 6.58519C10.368 8.34132 9.17652 10.2147 7.92659 11.7139C7.31411 12.4486 6.71193 13.065 6.26264 13.4977C6.16228 13.5944 6.06974 13.6817 5.98663 13.759C5.8957 13.6686 5.79312 13.5654 5.68107 13.4504C5.22332 12.9809 4.61099 12.3203 3.99063 11.5544C3.36883 10.7868 2.74857 9.92522 2.2678 9.0538C1.78281 8.17473 1.46535 7.33118 1.39919 6.59118ZM5.96929 14.707C6.40768 15.2466 6.40796 15.2464 6.40796 15.2464L5.96929 14.707ZM5.50756 15.2261L5.50653 15.2251L5.50313 15.222L5.49107 15.2108L5.44665 15.1693C5.40833 15.1333 5.35292 15.0808 5.28279 15.0132C5.14256 14.8779 4.9432 14.682 4.70359 14.4362C4.22505 13.9454 3.58244 13.2523 2.9282 12.4446C2.27542 11.6387 1.60145 10.707 1.06733 9.73888C0.537433 8.77843 0.119351 7.73627 0.0283165 6.71795C-0.325753 2.75731 2.69642 0 5.96929 0C9.25095 0 12.2807 2.93526 11.9097 6.72394C11.6936 8.93016 10.2574 11.083 8.97651 12.6193C8.32361 13.4025 7.68467 14.0563 7.20917 14.5143C6.97105 14.7436 6.77298 14.9247 6.63342 15.0494C6.56361 15.1118 6.50838 15.1601 6.47 15.1933L6.42535 15.2316L6.41304 15.2421L6.40947 15.2451L6.40796 15.2464L5.94942 15.6317L5.50756 15.2261ZM5.50756 15.2261C5.50756 15.2261 5.50815 15.2266 5.96929 14.707L5.50756 15.2261ZM5.96887 7.38855C6.73003 7.38855 7.34706 6.761 7.34706 5.98688C7.34706 5.21275 6.73003 4.5852 5.96887 4.5852C5.20773 4.5852 4.59069 5.21275 4.59069 5.98688C4.59069 6.761 5.20773 7.38855 5.96887 7.38855Z" fill="#11304C"/>
</svg>
