<svg width="31" height="30" viewBox="0 0 31 30" fill="none" xmlns="http://www.w3.org/2000/svg">
<g clip-path="url(#clip0_629_100789)">
<path d="M25.7938 9.29688L21.8938 7.29688V4.29688C21.8938 3.56354 21.6271 2.94687 21.0938 2.44687C20.5604 1.94687 19.9271 1.69687 19.1938 1.69687H8.59375C7.86042 1.69687 7.22708 1.94687 6.69375 2.44687C6.16042 2.94687 5.89375 3.56354 5.89375 4.29688V7.29688L1.99375 9.29688C1.59375 9.49687 1.26042 9.81354 0.99375 10.2469C0.727083 10.6802 0.59375 11.1635 0.59375 11.6969V27.3969C0.59375 27.6635 0.677083 27.8802 0.84375 28.0469C1.01042 28.2135 1.22708 28.2969 1.49375 28.2969H26.2938C26.5604 28.2969 26.7771 28.2135 26.9438 28.0469C27.1104 27.8802 27.1938 27.6635 27.1938 27.3969V11.6969C27.1938 11.1635 27.0604 10.6802 26.7938 10.2469C26.5271 9.81354 26.1938 9.49687 25.7938 9.29688ZM5.89375 26.5969H2.29375V11.6969C2.29375 11.2969 2.46042 10.9969 2.79375 10.7969L5.89375 9.29688V26.5969ZM16.5938 26.5969H11.1938V22.9969H16.5938V26.5969ZM20.0938 26.5969H18.2938V22.0969C18.2938 21.8302 18.2104 21.6135 18.0438 21.4469C17.8771 21.2802 17.6938 21.1969 17.4937 21.1969H10.2937C10.0938 21.1969 9.89375 21.2802 9.69375 21.4469C9.49375 21.6135 9.39375 21.8302 9.39375 22.0969V26.4969H7.69375V4.29688C7.69375 4.09687 7.77708 3.89688 7.94375 3.69687C8.11042 3.49687 8.32708 3.39688 8.59375 3.39688H19.1938C19.4604 3.39688 19.6771 3.49687 19.8438 3.69687C20.0104 3.89688 20.0938 4.09687 20.0938 4.29688V26.5969ZM25.4937 26.5969H21.8938V9.29688L24.9937 10.7969C25.3271 10.9969 25.4937 11.2969 25.4937 11.6969V26.5969ZM14.7937 15.8969H18.3938V17.6969H14.7937V15.8969ZM9.49375 15.8969H12.9938V17.6969H9.49375V15.8969ZM14.7937 12.2969H18.3938V14.0969H14.7937V12.2969ZM9.49375 12.2969H12.9938V14.0969H9.49375V12.2969ZM14.7937 8.79688H18.3938V10.4969H14.7937V8.79688ZM9.49375 8.79688H12.9938V10.4969H9.49375V8.79688ZM14.7937 5.19687H18.3938V6.99687H14.7937V5.19687ZM9.49375 5.19687H12.9938V6.99687H9.49375V5.19687Z" fill="#181A20"/>
</g>
<defs>
<clipPath id="clip0_629_100789">
<rect width="30" height="30" fill="white" transform="matrix(1 0 0 -1 0.59375 30)"/>
</clipPath>
</defs>
</svg>
