<svg width="31" height="30" viewBox="0 0 31 30" fill="none" xmlns="http://www.w3.org/2000/svg">
<g clip-path="url(#clip0_560_747)">
<path d="M23.5952 30H5.59521C4.26188 30 3.11188 29.5167 2.14521 28.55C1.17855 27.5833 0.695215 26.4 0.695215 25L0.595215 11.7C0.595215 10.4333 0.878548 9.28333 1.44521 8.25C2.01188 7.21667 2.82855 6.36667 3.89521 5.7L11.8952 0.699999C12.6952 0.233334 13.5785 0 14.5452 0C15.5119 0 16.3952 0.233334 17.1952 0.699999L25.1952 5.7C26.2619 6.3 27.0785 7.13333 27.6452 8.2C28.2119 9.26667 28.4952 10.4333 28.4952 11.7L28.5952 25C28.5952 26.4 28.1119 27.5833 27.1452 28.55C26.1785 29.5167 24.9952 30 23.5952 30ZM14.5952 2C13.9952 2 13.4619 2.13333 12.9952 2.4L4.89522 7.4C4.16188 7.86667 3.59521 8.48333 3.19521 9.25C2.79521 10.0167 2.59521 10.8333 2.59521 11.7V25C2.59521 25.8 2.89521 26.5 3.49521 27.1C4.09521 27.7 4.79522 28 5.59521 28H23.5952C24.4619 28 25.1785 27.7 25.7452 27.1C26.3119 26.5 26.5952 25.8 26.5952 25V11.7C26.5952 10.7667 26.3785 9.93333 25.9452 9.2C25.5119 8.46667 24.9285 7.86667 24.1952 7.4L16.0952 2.4C15.6285 2.13333 15.1285 2 14.5952 2ZM18.5952 24H10.5952C10.3285 24 10.1119 23.9 9.94522 23.7C9.77855 23.5 9.69522 23.2667 9.69522 23C9.69522 22.7333 9.77855 22.5 9.94522 22.3C10.1119 22.1 10.3285 22 10.5952 22H18.5952C18.9952 21.9333 19.3119 22.0833 19.5452 22.45C19.7785 22.8167 19.7785 23.1833 19.5452 23.55C19.3119 23.9167 18.9952 24.0667 18.5952 24Z" fill="#181A20"/>
</g>
<defs>
<clipPath id="clip0_560_747">
<rect width="30" height="30" fill="white" transform="matrix(1 0 0 -1 0.595215 30)"/>
</clipPath>
</defs>
</svg>
