<svg width="17" height="10" viewBox="0 0 17 10" fill="none" xmlns="http://www.w3.org/2000/svg">
<path d="M16.088 0.295998C15.872 1.232 15.644 2.228 15.404 3.284C15.188 4.34 14.984 5.372 14.792 6.38C14.6 7.364 14.444 8.276 14.324 9.116H9.392L9.14 8.72C9.356 7.856 9.632 6.944 9.968 5.984C10.304 5.024 10.664 4.052 11.048 3.068C11.456 2.084 11.852 1.16 12.236 0.295998H16.088ZM7.88 0.295998C7.664 1.232 7.436 2.228 7.196 3.284C6.98 4.34 6.776 5.372 6.584 6.38C6.392 7.364 6.236 8.276 6.116 9.116H1.184L0.932 8.72C1.148 7.856 1.424 6.944 1.76 5.984C2.096 5.024 2.456 4.052 2.84 3.068C3.248 2.084 3.644 1.16 4.028 0.295998H7.88Z" fill="#19CF79"/>
</svg>
