<svg width="28" height="28" viewBox="0 0 28 28" fill="none" xmlns="http://www.w3.org/2000/svg">
<path d="M24.595 21.9969V10.3969C24.595 8.66354 24.145 7.04688 23.245 5.54688C22.345 4.04688 21.145 2.86354 19.645 1.99687C18.145 1.13021 16.5283 0.696875 14.795 0.696875H12.995C11.2616 0.696875 9.64497 1.13021 8.14497 1.99687C6.64497 2.86354 5.44497 4.04688 4.54497 5.54688C3.64497 7.04688 3.19497 8.66354 3.19497 10.3969V21.9969H0.594971V23.7969H6.79497V27.2969H8.59497V23.7969H19.195V27.2969H20.995V23.7969H27.195V21.9969H24.595ZM22.795 10.3969V12.1969H14.795V2.39688C16.2616 2.39688 17.595 2.76354 18.795 3.49687C19.995 4.23021 20.9616 5.21354 21.695 6.44687C22.4283 7.68021 22.795 8.99687 22.795 10.3969ZM4.99497 10.3969C4.99497 8.99687 5.36164 7.68021 6.09497 6.44687C6.8283 5.21354 7.79497 4.23021 8.99497 3.49687C10.195 2.76354 11.5283 2.39688 12.995 2.39688V12.1969H4.99497V10.3969ZM4.99497 13.9969H12.995V21.9969H4.99497V13.9969ZM14.795 21.9969V13.9969H22.795V21.9969H14.795Z" fill="#181A20"/>
</svg>
