<svg width="28" height="28" viewBox="0 0 28 28" fill="none" xmlns="http://www.w3.org/2000/svg">
<path d="M25.895 1.99687C25.0283 1.13021 23.995 0.696875 22.795 0.696875H4.99497C3.79497 0.696875 2.76164 1.13021 1.89497 1.99687C1.0283 2.86354 0.594971 3.89688 0.594971 5.09687V24.5969C0.594971 25.1969 0.744971 25.7135 1.04497 26.1469C1.34497 26.5802 1.74497 26.8969 2.24497 27.0969C2.74497 27.2969 3.26164 27.3469 3.79497 27.2469C4.3283 27.1469 4.76164 26.8969 5.09497 26.4969L8.59497 22.9969H22.795C23.995 22.9969 25.0283 22.5635 25.895 21.6969C26.7616 20.8302 27.195 19.7969 27.195 18.5969V5.09687C27.195 3.89688 26.7616 2.86354 25.895 1.99687ZM25.495 18.5969C25.495 19.3302 25.2283 19.9469 24.695 20.4469C24.1616 20.9469 23.5283 21.1969 22.795 21.1969H8.19497C7.99497 21.1969 7.79497 21.2969 7.59497 21.4969L3.89497 25.2969C3.6283 25.5635 3.31164 25.6135 2.94497 25.4469C2.5783 25.2802 2.39497 25.0302 2.39497 24.6969V5.09687C2.39497 4.36354 2.64497 3.74687 3.14497 3.24687C3.64497 2.74687 4.26164 2.49687 4.99497 2.49687H22.795C23.5283 2.49687 24.1616 2.74687 24.695 3.24687C25.2283 3.74687 25.495 4.36354 25.495 5.09687V18.5969ZM13.395 5.29688L6.29497 9.69687L7.19497 11.1969L8.49497 10.3969V14.8969C8.49497 15.6302 8.76164 16.2635 9.29497 16.7969C9.8283 17.3302 10.4616 17.5969 11.195 17.5969H16.495C17.2283 17.5969 17.8616 17.3302 18.395 16.7969C18.9283 16.2635 19.195 15.6302 19.195 14.8969V10.3969L20.495 11.1969L21.495 9.69687L14.395 5.29688C14.0616 5.09687 13.7283 5.09687 13.395 5.29688ZM17.495 14.8969C17.4283 15.1635 17.3116 15.3802 17.145 15.5469C16.9783 15.7135 16.795 15.7969 16.595 15.7969H11.195C10.995 15.7969 10.795 15.7135 10.595 15.5469C10.395 15.3802 10.295 15.1635 10.295 14.8969V9.29688L13.895 7.09687L17.495 9.29688V14.8969Z" fill="#181A20"/>
</svg>
