<svg width="12" height="15" viewBox="0 0 12 15" fill="none" xmlns="http://www.w3.org/2000/svg">
<path d="M7.78667 5.8767C7.73333 5.7167 7.62667 5.6367 7.46667 5.6367H5.50667L6.06667 1.0767C6.09333 0.916697 6.03333 0.796697 5.88667 0.716697C5.74 0.636697 5.6 0.65003 5.46667 0.756697L0.106667 5.7167C0 5.85003 -0.0266667 5.99003 0.0266667 6.1367C0.08 6.28336 0.186667 6.3567 0.346667 6.3567H2.30667L1.74667 10.9167C1.72 11.0767 1.78 11.1967 1.92667 11.2767C2.07333 11.3567 2.21333 11.3434 2.34667 11.2367L7.70667 6.2367C7.81333 6.13003 7.84 6.01003 7.78667 5.8767ZM2.58667 10.0367L3.06667 6.0367C3.09333 5.93003 3.06667 5.8367 2.98667 5.7567C2.90667 5.6767 2.81333 5.6367 2.70667 5.6367H1.22667L5.22667 1.9567L4.74667 5.9567C4.72 6.06336 4.74667 6.1567 4.82667 6.2367C4.90667 6.3167 5 6.3567 5.10667 6.3567H6.58667L2.58667 10.0367Z" fill="white"/>
</svg>
