<svg width="19" height="14" viewBox="0 0 19 14" fill="none" xmlns="http://www.w3.org/2000/svg">
<g clip-path="url(#clip0_347_66250)">
<path d="M0.640625 12.5V1.5C0.640625 1.08 0.790625 0.73 1.08062 0.44C1.37063 0.14 1.72063 0 2.14062 0H17.1406C17.5606 0 17.9106 0.15 18.2006 0.44C18.5006 0.73 18.6406 1.08 18.6406 1.5V12.5C18.6406 12.92 18.4906 13.27 18.2006 13.56C17.9106 13.86 17.5606 14 17.1406 14H2.14062C1.72063 14 1.37063 13.85 1.08062 13.56C0.780625 13.27 0.640625 12.92 0.640625 12.5ZM2.14062 4.18H4.79063V1.5H2.14062V4.17V4.18ZM6.29063 4.18H17.1406V1.5H6.29063V4.17V4.18ZM6.29063 8.32H17.1406V5.67H6.29063V8.32ZM6.29063 12.5H17.1406V9.82H6.29063V12.5ZM2.14062 12.5H4.79063V9.82H2.14062V12.5ZM2.14062 8.32H4.79063V5.67H2.14062V8.32Z" fill="white"/>
</g>
<defs>
<clipPath id="clip0_347_66250">
<rect width="18" height="14" fill="white" transform="translate(0.640625)"/>
</clipPath>
</defs>
</svg>
