<svg width="18" height="18" viewBox="0 0 18 18" fill="none" xmlns="http://www.w3.org/2000/svg">
<path d="M11.0428 7.01425C11.0428 5.88225 10.1277 4.96425 8.99925 4.96425C7.87075 4.96425 6.95575 5.88225 6.95575 7.01425C6.95575 8.14675 7.87075 9.06425 8.99925 9.06425C10.1277 9.06425 11.0428 8.14675 11.0428 7.01425ZM12.0428 7.01425C12.0428 8.69825 10.6803 10.0642 8.99925 10.0642C7.31825 10.0642 5.95575 8.69825 5.95575 7.01425C5.95575 5.33025 7.31825 3.96425 8.99925 3.96425C10.6803 3.96425 12.0428 5.33025 12.0428 7.01425ZM9.64025 16.0428C10.3865 15.3864 11.0835 14.6762 11.7257 13.9178C13.5997 11.6973 14.7168 9.35575 14.7168 7.01475C14.7168 3.90075 12.0608 1.28175 8.99925 1.28175C5.93775 1.28175 3.28175 3.90025 3.28175 7.01425C3.28175 9.35525 4.39875 11.6967 6.27275 13.9167C7.09597 14.8886 8.00883 15.7809 8.99925 16.5817C9.19425 16.4262 9.40925 16.2463 9.64025 16.0428ZM15.7168 7.01475C15.7168 9.63225 14.5018 12.1783 12.4903 14.5623C11.6121 15.5992 10.6366 16.5497 9.57725 17.4007C9.44425 17.5062 9.34775 17.5798 9.29375 17.6187L8.99925 17.8337L8.70425 17.6187C8.60855 17.5479 8.5142 17.4752 8.42125 17.4007C7.36209 16.5498 6.38681 15.5995 5.50875 14.5627C3.49575 12.1777 2.28125 9.63175 2.28125 7.01375C2.28175 3.34525 5.38925 0.28125 8.99925 0.28125C12.6093 0.28125 15.7168 3.34525 15.7168 7.01425V7.01475Z" fill="#6C6C6C"/>
</svg>
