<svg width="18" height="20" viewBox="0 0 18 20" fill="none" xmlns="http://www.w3.org/2000/svg">
<path d="M0.40625 16.9232C0.40625 19.0368 4.81256 20 8.90625 20C12.9999 20 17.4062 19.0368 17.4062 16.9232C17.4062 15.2968 14.9753 14.5296 12.9365 14.172C12.5146 14.0992 12.1151 14.3784 12.0412 14.7968C11.9673 15.2152 12.2477 15.6144 12.668 15.688C15.1272 16.1176 15.8215 16.7912 15.8617 16.9352C15.7435 17.3384 13.4251 18.4616 8.90625 18.4616C4.38744 18.4616 2.06896 17.3384 1.95002 16.9112C1.99101 16.7912 2.68936 16.1136 5.16615 15.6848C5.58645 15.612 5.86772 15.2128 5.79459 14.7944C5.72146 14.3768 5.32768 14.0976 4.90015 14.1688C2.85009 14.5248 0.40625 15.2904 0.40625 16.9232ZM11.997 12.308H11.2247V16.9232C11.2247 17.3472 10.8776 17.692 10.4516 17.692H7.36087C6.93494 17.692 6.58778 17.3464 6.58778 16.9232V12.308H5.81549C5.38956 12.308 5.04239 11.9624 5.04239 11.5384V6.9232C5.04239 6.5296 5.6628 5.6656 6.73966 5.5408C7.18166 5.4568 8.03431 5.3968 8.8942 5.3968C9.76212 5.396 10.6268 5.4568 11.0736 5.5408C12.1497 5.6664 12.7701 6.5304 12.7701 6.9232V11.5384C12.7701 11.9624 12.4229 12.308 11.997 12.308ZM8.90625 4.6152C7.62607 4.6152 6.58778 3.5816 6.58778 2.3072C6.58778 1.0336 7.62607 0 8.90625 0C10.1864 0 11.2247 1.0336 11.2247 2.308C11.2247 3.5824 10.1864 4.6152 8.90625 4.6152Z" fill="white"/>
</svg>
