<svg width="22" height="22" viewBox="0 0 22 22" fill="none" xmlns="http://www.w3.org/2000/svg">
<path d="M4.9996 5.00152L9.4996 9.50152M4.9996 5.00152H1.9996L1 2.00152L1.9996 1.00192L4.9996 2.00152V5.00152ZM18.2584 1.74232L15.6304 4.37032C15.2344 4.76632 15.0364 4.96432 14.9632 5.19232C14.8979 5.39315 14.8979 5.60949 14.9632 5.81032C15.0364 6.03832 15.2344 6.23632 15.6304 6.63232L15.868 6.86992C16.264 7.26592 16.462 7.46392 16.69 7.53832C16.8908 7.6036 17.1072 7.6036 17.308 7.53832C17.536 7.46392 17.7352 7.26592 18.1312 6.86992L20.5876 4.41352C20.966 5.33353 21.0877 6.33893 20.9398 7.32265C20.792 8.30637 20.3801 9.23157 19.748 9.99972C19.116 10.7679 18.2874 11.3502 17.3505 11.6847C16.4137 12.0191 15.4036 12.0933 14.428 11.8991C13.942 11.8031 13.6984 11.7551 13.552 11.7695C13.4205 11.7772 13.2926 11.8158 13.1788 11.8823C13.048 11.9531 12.9172 12.0839 12.6556 12.3455L5.4976 19.5023C5.0976 19.8895 4.56143 20.104 4.00473 20.0995C3.44803 20.095 2.91542 19.8718 2.52176 19.4782C2.1281 19.0845 1.90495 18.5519 1.90043 17.9952C1.89591 17.4385 2.11038 16.9023 2.4976 16.5023L9.658 9.34552C9.9196 9.08392 10.0504 8.95312 10.12 8.82232C10.1867 8.70901 10.2258 8.58156 10.234 8.45032C10.2484 8.30272 10.2004 8.05912 10.1044 7.57312C9.89783 6.53521 9.9951 5.45973 10.3845 4.47572C10.774 3.49172 11.4391 2.64097 12.3 2.02555C13.1609 1.41013 14.1811 1.05617 15.2382 1.00615C16.2953 0.956124 17.3444 1.21215 18.2596 1.74352L18.2584 1.74232ZM10.9984 14.0015L16.4992 19.5011C16.695 19.7034 16.9291 19.8647 17.1878 19.9756C17.4466 20.0864 17.7248 20.1447 18.0063 20.147C18.2878 20.1493 18.567 20.0955 18.8275 19.9889C19.088 19.8822 19.3247 19.7247 19.5238 19.5257C19.7228 19.3266 19.8803 19.0899 19.9869 18.8294C20.0936 18.5689 20.1474 18.2898 20.1451 18.0083C20.1428 17.7268 20.0845 17.4485 19.9736 17.1898C19.8627 16.931 19.7015 16.6969 19.4992 16.5011L14.9752 11.9771C14.6588 11.9472 14.3456 11.8898 14.0392 11.8055C13.6516 11.6987 13.2244 11.7767 12.9388 12.0623L10.9996 14.0015H10.9984Z" stroke="#070026" stroke-width="1.8" stroke-linecap="round" stroke-linejoin="round"/>
</svg>
