<svg width="22" height="22" viewBox="0 0 22 22" fill="none" xmlns="http://www.w3.org/2000/svg">
<path d="M16.0417 9.625L17.875 11.4583M12.8333 12.8333L14.6667 14.6667M9.625 16.0417L11.4583 17.875" stroke="#141B34" stroke-width="1.5" stroke-linecap="round"/>
<path d="M9.66018 4.29047C10.9112 3.03948 11.5367 2.41399 12.2344 2.12496C13.1648 1.7396 14.2101 1.7396 15.1405 2.12496C15.8383 2.41399 16.4638 3.03948 17.7147 4.29047C18.9657 5.54145 19.5912 6.16695 19.8802 6.86472C20.2656 7.79508 20.2656 8.84042 19.8802 9.77078C19.5912 10.4686 18.9657 11.094 17.7147 12.345L12.345 17.7147C11.094 18.9657 10.4686 19.5912 9.77078 19.8802C8.84042 20.2656 7.79508 20.2656 6.86472 19.8802C6.16695 19.5912 5.54145 18.9657 4.29047 17.7147C3.03948 16.4638 2.41399 15.8383 2.12496 15.1405C1.7396 14.2101 1.7396 13.1648 2.12496 12.2344C2.41399 11.5367 3.03948 10.9112 4.29047 9.66018L9.66018 4.29047Z" stroke="#141B34" stroke-width="1.5" stroke-linecap="round" stroke-linejoin="round"/>
</svg>
