<svg width="15" height="15" viewBox="0 0 15 15" fill="none" xmlns="http://www.w3.org/2000/svg">
<g clip-path="url(#clip0_390_54796)">
<path d="M7.40625 13.6562C7.09514 13.6562 6.80736 13.594 6.54292 13.4696C6.27847 13.3451 6.05292 13.1585 5.86625 12.9096L1.52625 7.58958C0.997361 7.06069 0.655139 6.44625 0.499583 5.74625C0.344028 5.04625 0.382917 4.35403 0.61625 3.66958C0.849583 2.98514 1.24625 2.40958 1.80625 1.94292C2.36625 1.47625 3.00403 1.19625 3.71958 1.10292C4.43514 1.00958 5.12736 1.11069 5.79625 1.40625C6.46514 1.70181 7.00181 2.14514 7.40625 2.73625C7.53069 2.54958 7.68625 2.36292 7.87292 2.17625C8.37069 1.67847 8.94625 1.34403 9.59958 1.17292C10.2529 1.00181 10.9062 1.00181 11.5596 1.17292C12.2129 1.34403 12.7885 1.67069 13.2863 2.15292C13.784 2.63514 14.1185 3.21069 14.2896 3.87958C14.4607 4.54847 14.4607 5.20958 14.2896 5.86292C14.1185 6.51625 13.784 7.09181 13.2863 7.58958L8.94625 12.9096C8.75958 13.1585 8.53403 13.3451 8.26958 13.4696C8.00514 13.594 7.71736 13.6562 7.40625 13.6562ZM4.23292 1.98958C3.64181 1.98958 3.10514 2.15292 2.62292 2.47958C2.14069 2.80625 1.79069 3.24181 1.57292 3.78625C1.35514 4.33069 1.30069 4.88292 1.40958 5.44292C1.51847 6.00292 1.77514 6.50069 2.17958 6.93625L6.61292 12.3029C6.79958 12.5518 7.05625 12.6762 7.38292 12.6762C7.70958 12.6762 7.98181 12.5518 8.19958 12.3029L12.6329 6.93625C13.0374 6.50069 13.3018 5.98736 13.4263 5.39625C13.5507 4.80514 13.4885 4.23736 13.2396 3.69292C12.9907 3.14847 12.6174 2.72069 12.1196 2.40958C11.6218 2.09847 11.0696 1.95069 10.4629 1.96625C9.85625 1.98181 9.31958 2.16847 8.85292 2.52625C8.38625 2.88403 8.04403 3.34292 7.82625 3.90292C7.79514 3.99625 7.74069 4.07403 7.66292 4.13625C7.58514 4.19847 7.49958 4.22958 7.40625 4.22958C7.31292 4.22958 7.22736 4.19847 7.14958 4.13625C7.07181 4.07403 7.01736 3.99625 6.98625 3.90292C6.76847 3.34292 6.41069 2.88403 5.91292 2.52625C5.41514 2.16847 4.85514 1.98958 4.23292 1.98958Z" fill="#181A20"/>
</g>
<defs>
<clipPath id="clip0_390_54796">
<rect width="14" height="14" fill="white" transform="matrix(1 0 0 -1 0.5 14.3594)"/>
</clipPath>
</defs>
</svg>
