<svg width="15" height="19" viewBox="0 0 15 19" fill="none" xmlns="http://www.w3.org/2000/svg">
<g clip-path="url(#clip0_390_54789)">
<path d="M12.5867 4.83583C12.3378 4.58694 12.0422 4.4625 11.7 4.4625H9.6V2.3625C9.6 2.02028 9.48333 1.7325 9.25 1.49917C9.01667 1.26583 8.72889 1.14917 8.38667 1.14917H1.71333C1.37111 1.14917 1.08333 1.26583 0.85 1.49917C0.616667 1.7325 0.5 2.02028 0.5 2.3625V9.03583C0.5 9.37806 0.616667 9.66583 0.85 9.89917C1.08333 10.1325 1.37111 10.2492 1.71333 10.2492H3.81333V12.3492C3.81333 12.6914 3.93 12.9792 4.16333 13.2125C4.39667 13.4458 4.68444 13.5625 5.02667 13.5625H11.7C12.0422 13.5625 12.33 13.4458 12.5633 13.2125C12.7967 12.9792 12.9133 12.6914 12.9133 12.3492V5.67583C12.9133 5.33361 12.8044 5.05361 12.5867 4.83583ZM1.71333 9.40917C1.62 9.40917 1.53444 9.37028 1.45667 9.2925C1.37889 9.21472 1.34 9.11361 1.34 8.98917V2.3625C1.34 2.26917 1.37889 2.17583 1.45667 2.0825C1.53444 1.98917 1.62 1.9425 1.71333 1.9425H8.38667C8.48 1.9425 8.56556 1.98917 8.64333 2.0825C8.72111 2.17583 8.76 2.26917 8.76 2.3625V4.4625H5.07333C4.7 4.4625 4.39667 4.57917 4.16333 4.8125C3.93 5.04583 3.81333 5.33361 3.81333 5.67583V9.40917H1.71333ZM12.12 12.3492C12.12 12.4425 12.0733 12.5281 11.98 12.6058C11.8867 12.6836 11.7933 12.7381 11.7 12.7692H5.07333C4.94889 12.7381 4.84778 12.6836 4.77 12.6058C4.69222 12.5281 4.65333 12.4425 4.65333 12.3492V5.67583C4.65333 5.5825 4.69222 5.49694 4.77 5.41917C4.84778 5.34139 4.94889 5.3025 5.07333 5.3025H11.7C11.7933 5.3025 11.8867 5.34139 11.98 5.41917C12.0733 5.49694 12.12 5.59806 12.12 5.7225V12.3492ZM8.76 7.35583H7.96667V8.61583H6.70667V9.40917H7.96667V10.6692H8.76V9.40917H10.02V8.61583H8.76V7.35583Z" fill="#181A20"/>
</g>
<defs>
<clipPath id="clip0_390_54789">
<rect width="14" height="14" fill="white" transform="matrix(1 0 0 -1 0.5 14.3594)"/>
</clipPath>
</defs>
</svg>
