<svg width="16" height="16" viewBox="0 0 16 16" fill="none" xmlns="http://www.w3.org/2000/svg">
<path d="M15.2172 15.0328C15.3734 15.1891 15.6266 15.1891 15.7828 15.0328C15.9391 14.8766 15.9391 14.6234 15.7828 14.4672L15.2172 15.0328ZM13.4172 13.2328L15.2172 15.0328L15.7828 14.4672L13.9828 12.6672L13.4172 13.2328ZM15 9.8C15 7.34233 13.0077 5.35 10.55 5.35V6.15C12.5658 6.15 14.2 7.78416 14.2 9.8H15ZM10.55 5.35C8.09233 5.35 6.1 7.34233 6.1 9.8H6.9C6.9 7.78416 8.53416 6.15 10.55 6.15V5.35ZM6.1 9.8C6.1 12.2577 8.09233 14.25 10.55 14.25V13.45C8.53416 13.45 6.9 11.8158 6.9 9.8H6.1ZM10.55 14.25C13.0077 14.25 15 12.2577 15 9.8H14.2C14.2 11.8158 12.5658 13.45 10.55 13.45V14.25Z" fill="#141B34"/>
<path d="M0.5 6.5L4.25 6.50004" stroke="#141B34" stroke-width="0.8" stroke-linecap="round" stroke-linejoin="round"/>
<path d="M0.5 11.75H4.25" stroke="#141B34" stroke-width="0.8" stroke-linecap="round" stroke-linejoin="round"/>
<path d="M0.5 1.25H13.25" stroke="#141B34" stroke-width="0.8" stroke-linecap="round" stroke-linejoin="round"/>
</svg>
