<svg width="24" height="24" viewBox="0 0 24 24" fill="none" xmlns="http://www.w3.org/2000/svg">
<path d="M9.022 3.23006H9.742C10.138 3.23006 10.463 2.90506 10.463 2.51006C10.4622 2.31926 10.3861 2.13648 10.2513 2.00146C10.1165 1.86645 9.9338 1.79012 9.743 1.78906H9.023C8.83202 1.78959 8.64898 1.86555 8.51375 2.0004C8.37852 2.13526 8.30205 2.31809 8.301 2.50906C8.301 2.90506 8.627 3.23006 9.022 3.23006ZM12.648 3.23006H13.81C14.205 3.23006 14.53 2.90506 14.53 2.51006C14.5292 2.31926 14.4531 2.13648 14.3183 2.00146C14.1835 1.86645 14.0008 1.79012 13.81 1.78906H12.648C12.4574 1.79011 12.2748 1.86631 12.14 2.00111C12.0052 2.13591 11.9291 2.31843 11.928 2.50906C11.928 2.90506 12.253 3.23006 12.648 3.23006ZM16.739 3.23006H17.901C18.296 3.23006 18.621 2.90506 18.621 2.51006C18.6202 2.31926 18.5441 2.13648 18.4093 2.00146C18.2745 1.86645 18.0918 1.79012 17.901 1.78906H16.739C16.5484 1.79011 16.3658 1.86631 16.231 2.00111C16.0962 2.13591 16.0201 2.31843 16.019 2.50906C16.019 2.90506 16.344 3.23006 16.739 3.23006ZM20.806 3.23006C20.806 3.62506 21.132 3.95006 21.526 3.95006C21.922 3.95006 22.247 3.62506 22.247 3.23006V2.51006C22.2462 2.31926 22.1701 2.13648 22.0353 2.00146C21.9005 1.86645 21.7178 1.79012 21.527 1.78906H20.807C20.6162 1.78985 20.4334 1.86593 20.2984 2.00076C20.1634 2.13558 20.0871 2.31826 20.086 2.50906C20.086 2.90506 20.435 3.23006 20.806 3.23006ZM22.247 6.13506C22.2459 5.94443 22.1698 5.76191 22.035 5.62711C21.9002 5.49231 21.7176 5.41611 21.527 5.41506C21.3364 5.41611 21.1538 5.49231 21.019 5.62711C20.8842 5.76191 20.808 5.94443 20.807 6.13506V7.29706C20.807 7.69306 21.132 8.01806 21.527 8.01806C21.922 8.01806 22.247 7.69306 22.247 7.29806V6.13406V6.13506ZM22.247 10.2261C22.2459 10.0354 22.1698 9.85291 22.035 9.71811C21.9002 9.58331 21.7176 9.50711 21.527 9.50606C21.3364 9.50711 21.1538 9.58331 21.019 9.71811C20.8842 9.85291 20.808 10.0354 20.807 10.2261V11.3881C20.807 11.7831 21.132 12.1081 21.527 12.1081C21.922 12.1081 22.247 11.7831 22.247 11.3881V10.2261ZM21.527 13.5961C21.3364 13.5971 21.1538 13.6733 21.019 13.8081C20.8842 13.9429 20.808 14.1254 20.807 14.3161V15.0371C20.807 15.4331 21.132 15.7571 21.527 15.7571C21.922 15.7571 22.247 15.4321 22.247 15.0371V14.3171C22.2483 14.2221 22.2306 14.1279 22.1949 14.0399C22.1592 13.952 22.1062 13.8721 22.0391 13.8049C21.972 13.7378 21.8921 13.6848 21.8041 13.6491C21.7162 13.6134 21.6219 13.5947 21.527 13.5961ZM8.72 16.0371H16.646C17.041 16.0371 17.366 15.7121 17.366 15.3171V7.39006C17.3649 7.19943 17.2888 7.01691 17.154 6.88211C17.0192 6.74731 16.8366 6.67111 16.646 6.67006H8.72C8.52937 6.67111 8.34684 6.74731 8.21204 6.88211C8.07725 7.01691 8.00105 7.19943 8 7.39006V15.3151C8 15.7111 8.325 16.0351 8.72 16.0351V16.0371ZM9.417 8.11106H15.925V14.6191H9.417V8.11106Z" fill="#070026" stroke="#070026" stroke-width="0.2"/>
<path d="M22.8497 19.7097L20.7107 17.5717C20.6454 17.5054 20.5675 17.4528 20.4817 17.4168C20.3958 17.3809 20.3037 17.3624 20.2107 17.3624C20.1176 17.3624 20.0255 17.3809 19.9397 17.4168C19.8538 17.4528 19.776 17.5054 19.7107 17.5717C19.6444 17.637 19.5918 17.7148 19.5558 17.8007C19.5199 17.8865 19.5014 17.9786 19.5014 18.0717C19.5014 18.1647 19.5199 18.2568 19.5558 18.3427C19.5918 18.4285 19.6444 18.5064 19.7107 18.5717L20.6407 19.5007H4.53467V3.41667L5.46467 4.34667C5.60467 4.48567 5.78967 4.55567 5.97567 4.55567C6.16167 4.55567 6.34767 4.48567 6.48767 4.34567C6.55392 4.28045 6.60653 4.20269 6.64244 4.11694C6.67835 4.03118 6.69684 3.93914 6.69684 3.84617C6.69684 3.75321 6.67835 3.66117 6.64244 3.57541C6.60653 3.48966 6.55392 3.4119 6.48767 3.34667L4.34767 1.20967C4.28243 1.14328 4.20461 1.09054 4.11877 1.05454C4.03292 1.01854 3.94076 1 3.84767 1C3.75459 1 3.66243 1.01854 3.57658 1.05454C3.49074 1.09054 3.41292 1.14328 3.34767 1.20967L1.20967 3.34667C1.14328 3.41192 1.09054 3.48974 1.05454 3.57558C1.01854 3.66143 1 3.75359 1 3.84667C1 3.93976 1.01854 4.03192 1.05454 4.11777C1.09054 4.20361 1.14328 4.28143 1.20967 4.34667C1.27492 4.41307 1.35274 4.46581 1.43858 4.50181C1.52443 4.53781 1.61659 4.55635 1.70967 4.55635C1.80276 4.55635 1.89492 4.53781 1.98077 4.50181C2.06661 4.46581 2.14443 4.41307 2.20967 4.34667L3.13967 3.41667V20.2217C3.13967 20.6167 3.46467 20.9417 3.85967 20.9417H20.6177L19.6877 21.8717C19.6213 21.9369 19.5685 22.0147 19.5325 22.1006C19.4965 22.1864 19.478 22.2786 19.478 22.3717C19.478 22.4648 19.4965 22.5569 19.5325 22.6428C19.5685 22.7286 19.6213 22.8064 19.6877 22.8717C19.8277 23.0107 20.0137 23.0797 20.1997 23.0797C20.2944 23.0802 20.3883 23.062 20.476 23.0261C20.5637 22.9902 20.6434 22.9374 20.7107 22.8707L22.8497 20.7327C23.1277 20.4307 23.1277 19.9887 22.8497 19.7097Z" fill="#070026" stroke="#070026" stroke-width="0.2"/>
</svg>
