<svg width="16" height="16" viewBox="0 0 16 16" fill="none" xmlns="http://www.w3.org/2000/svg">
<path d="M13.8135 0.10775C13.7703 0.0603362 13.6837 0.0129223 13.6404 0.0129223C13.5539 0.0129223 13.5106 0.10775 13.5106 0.202578C13.5106 0.487062 13.5106 0.724131 13.5106 1.00861C10.8273 1.00861 8.14398 1.00861 5.46067 1.00861C5.46067 0.724131 5.46067 0.487062 5.46067 0.202578C5.46067 0.10775 5.41739 0.0603362 5.37411 0.0129223C5.28755 -0.0344916 5.24428 0.0603362 5.201 0.10775C4.81148 0.534476 4.42197 0.961201 4.03246 1.38793C3.98918 1.43534 3.98918 1.57758 4.03246 1.625C4.42197 2.05172 4.81148 2.47845 5.201 2.90517C5.24428 2.95259 5.33083 3 5.41739 2.95259C5.46067 2.90517 5.50395 2.85776 5.50395 2.76293C5.50395 2.52586 5.50395 2.24138 5.50395 2.00431C8.18725 2.00431 10.8706 2.00431 13.5539 2.00431C13.5539 2.28879 13.5539 2.52586 13.5539 2.81034C13.5539 2.90517 13.5971 2.95259 13.6837 3C13.727 2.95259 13.7703 2.90517 13.8135 2.85776C14.203 2.43103 14.5926 2.05172 14.9388 1.625C14.9821 1.57758 15.0254 1.48275 14.9821 1.43534C14.9821 1.34051 14.8955 1.2931 14.8522 1.24568C14.506 0.866373 14.1598 0.487062 13.8135 0.10775Z" fill="black"/>
<path d="M1.55802 4.01793C1.46189 3.97465 1.41382 4.01793 1.36576 4.06121C0.933163 4.45072 0.500569 4.84023 0.067975 5.22974C0.0199091 5.27302 -0.028156 5.35958 0.0199099 5.44614C0.0679758 5.48942 0.116041 5.48942 0.212173 5.48942C0.452502 5.48942 0.740899 5.48942 0.981229 5.48942C0.981229 8.17272 0.981229 10.856 0.981229 13.5393C0.740899 13.5393 0.452502 13.5393 0.212173 13.5393C0.164107 13.5393 0.0679758 13.5393 0.0199099 13.5826C-0.028156 13.6692 0.0199091 13.7557 0.067975 13.799C0.500569 14.1885 0.933163 14.578 1.36576 14.9675C1.41382 15.0108 1.55802 15.0108 1.60609 14.9675C2.03868 14.578 2.47127 14.1885 2.90387 13.799C2.95193 13.7557 3 13.7124 3 13.6259C3 13.5393 2.90387 13.496 2.80774 13.5393C2.51934 13.5393 2.27901 13.5393 1.99061 13.5393C1.99061 10.856 1.99061 8.17272 1.99061 5.48942C2.27901 5.48942 2.51934 5.48942 2.80774 5.48942C2.90387 5.48942 3 5.40286 2.95193 5.3163C2.90387 5.22974 2.8558 5.18646 2.80774 5.14318C2.42321 4.79695 2.08675 4.494 1.70222 4.14776C1.70222 4.10448 1.65415 4.06121 1.55802 4.01793Z" fill="black"/>
<path d="M14.5959 4.08963C14.4163 4 14.1918 4 14.0122 4C11.0041 4 7.99592 4 4.98776 4C4.80816 4 4.58367 4 4.40408 4.08963C4.17959 4.22408 4 4.49298 4 4.76188C4 7.85423 4 10.9466 4 14.0837C4 14.263 4 14.4423 4.0449 14.5767C4.13469 14.8008 4.31429 14.9353 4.53878 14.9801C4.67347 15.0249 4.80816 14.9801 4.94286 14.9801C7.95102 14.9801 10.9592 14.9801 13.9673 14.9801C14.1469 14.9801 14.3265 14.9801 14.5061 14.8904C14.8204 14.8008 15 14.5767 15 14.3078V4.71707C15 4.44817 14.8204 4.17927 14.5959 4.08963Z" fill="black"/>
</svg>
