<svg width="18" height="16" viewBox="0 0 18 16" fill="none" xmlns="http://www.w3.org/2000/svg">
<path d="M16.0872 7.06159H15.4972L10.3092 2.20768C10.4018 2.01594 10.45 1.80563 10.4496 1.59265C10.4492 0.803166 9.80865 0.163591 9.01917 0.164063C8.22969 0.164535 7.59011 0.805053 7.59058 1.59453C7.59027 1.80689 7.6384 2.01641 7.73105 2.20737L2.54304 7.06159H1.95301C0.887162 7.06159 0 7.93884 0 9.00454V13.877C0 14.9429 0.887162 15.7998 1.95301 15.7998H16.0872C16.5965 15.8008 17.0851 15.5982 17.4444 15.237C17.8035 14.876 18.0036 14.3863 18 13.877V9.00454C18 7.93884 17.1531 7.06159 16.0872 7.06159ZM9.02011 0.809929C9.45378 0.809929 9.80534 1.16149 9.80534 1.59516C9.80534 2.02883 9.45378 2.3804 9.02011 2.3804C8.58644 2.3804 8.23488 2.02883 8.23488 1.59516C8.23535 1.16165 8.5866 0.810401 9.02011 0.809929ZM8.13547 2.71182C8.6525 3.12615 9.38819 3.12567 9.90476 2.71056L14.5546 7.06159H3.48557L8.13547 2.71182ZM17.3557 13.8669C17.3557 14.5786 16.7787 15.1555 16.0671 15.1555H1.93288C1.22126 15.1555 0.644294 14.5786 0.644294 13.8669V8.99447C0.644294 8.28285 1.22126 7.70588 1.93288 7.70588H16.0671C16.7787 7.70588 17.3557 8.28285 17.3557 8.99447V13.8669Z" fill="black"/>
</svg>
