<svg width="14" height="13" viewBox="0 0 14 13" fill="none" xmlns="http://www.w3.org/2000/svg">
<g clip-path="url(#clip0_347_66613)">
<path d="M0 1.50781C0 1.10156 0.3125 0.757812 0.75 0.757812H13.25C13.6562 0.757812 14 1.10156 14 1.50781C14 1.94531 13.6562 2.25781 13.25 2.25781H0.75C0.3125 2.25781 0 1.94531 0 1.50781ZM0 6.50781C0 6.10156 0.3125 5.75781 0.75 5.75781H9.25C9.65625 5.75781 10 6.10156 10 6.50781C10 6.94531 9.65625 7.25781 9.25 7.25781H0.75C0.3125 7.25781 0 6.94531 0 6.50781ZM5.25 12.2578H0.75C0.3125 12.2578 0 11.9453 0 11.5078C0 11.1016 0.3125 10.7578 0.75 10.7578H5.25C5.65625 10.7578 6 11.1016 6 11.5078C6 11.9453 5.65625 12.2578 5.25 12.2578Z" fill="black"/>
</g>
<defs>
<clipPath id="clip0_347_66613">
<rect width="14" height="12" fill="white" transform="translate(0 0.757812)"/>
</clipPath>
</defs>
</svg>
