<svg width="17" height="17" viewBox="0 0 17 17" fill="none" xmlns="http://www.w3.org/2000/svg">
<g clip-path="url(#clip0_390_55014)">
<path fill-rule="evenodd" clip-rule="evenodd" d="M16.5099 0.367188V4.19602H5.92455V3.97054C5.92455 2.97705 5.11637 2.16886 4.12288 2.16886C3.12939 2.16886 2.32121 2.97705 2.32121 3.97054C2.32121 4.96402 3.12939 5.77221 4.12288 5.77221H4.348V16.3575H0.519531V0.367188H16.5099ZM16.0593 3.74542V0.817792H0.970136V15.9069H3.89776V14.0818H3.12828V13.6316H3.89776V12.8807H3.12828V12.4301H3.89776V11.7406H2.13367V11.29H3.89776V10.5767H3.12828V10.1264H3.89776V9.37556H3.12828V8.92533H3.89776V8.24961H2.13367V7.79937H3.89776V6.21165C2.76139 6.09816 1.87097 5.13668 1.87097 3.97054C1.87097 2.72886 2.88121 1.71863 4.12288 1.71863C5.28865 1.71863 6.25051 2.60905 6.364 3.74542H7.93758V2.83268H8.38781V3.74542H9.13832V2.83268H9.58893V3.74542H10.2788V1.83807H10.729V3.74542H11.4423V2.83268H11.8929V3.74542H12.6434V2.83268H13.094V3.74542H13.7694V1.83807H14.22V3.74542H16.0593Z" fill="black"/>
</g>
<defs>
<clipPath id="clip0_390_55014">
<rect width="16" height="16" fill="white" transform="translate(0.519531 0.367188)"/>
</clipPath>
</defs>
</svg>
