<svg width="24" height="20" viewBox="0 0 24 20" fill="none" xmlns="http://www.w3.org/2000/svg">
<g clip-path="url(#clip0_346_46144)">
<path d="M21.8892 2.40012C23.2626 3.85879 23.9999 5.49479 23.9999 8.14679C23.9999 12.8135 20.7239 16.9961 15.9599 19.0641L14.7692 17.2268C19.2159 14.8215 20.0852 11.7001 20.4319 9.73212C19.7159 10.1028 18.7786 10.2321 17.8599 10.1468C15.4546 9.92412 13.5586 7.94945 13.5586 5.49479C13.5586 4.25711 14.0502 3.07013 14.9254 2.19496C15.8006 1.31979 16.9876 0.828125 18.2252 0.828125C19.6559 0.828125 21.0239 1.48146 21.8892 2.40012ZM8.55589 2.40012C9.92923 3.85879 10.6666 5.49479 10.6666 8.14679C10.6666 12.8135 7.39056 16.9961 2.62656 19.0641L1.4359 17.2268C5.88256 14.8215 6.7519 11.7001 7.09856 9.73212C6.38256 10.1028 5.44523 10.2321 4.52656 10.1468C2.12123 9.92412 0.226562 7.94945 0.226562 5.49479C0.226563 4.25711 0.718228 3.07013 1.5934 2.19496C2.46857 1.31979 3.65555 0.828125 4.89323 0.828125C6.3239 0.828125 7.6919 1.48146 8.55723 2.40012H8.55589Z" fill="#4081FF"/>
</g>
<defs>
<clipPath id="clip0_346_46144">
<rect width="24" height="19" fill="white" transform="translate(0 0.5)"/>
</clipPath>
</defs>
</svg>
