<svg width="22" height="22" viewBox="0 0 22 22" fill="none" xmlns="http://www.w3.org/2000/svg">
<path d="M16.0417 20.1654C18.0667 20.1654 19.7083 18.5237 19.7083 16.4987C19.7083 15.5211 19.3258 14.6329 18.7022 13.9756C18.2377 13.486 18.0055 13.2412 17.9402 13.0776C17.875 12.9141 17.875 12.6978 17.875 12.2651V3.66536C17.875 2.65284 17.0542 1.83203 16.0417 1.83203C15.0291 1.83203 14.2083 2.65284 14.2083 3.66536V12.2651C14.2083 12.6978 14.2083 12.9141 14.1431 13.0776C14.0779 13.2412 13.8456 13.486 13.3812 13.9756C12.7576 14.6329 12.375 15.5211 12.375 16.4987C12.375 18.5237 14.0166 20.1654 16.0417 20.1654Z" stroke="#141B34" stroke-width="1.5" stroke-linecap="round" stroke-linejoin="round"/>
<path d="M8.28906 4.58203V7.93359M8.28906 7.93359V13.1471M8.28906 7.93359L10.1641 6.07161M8.28906 7.93359L6.41406 6.07161M8.28906 13.1471L8.28906 16.4987M8.28906 13.1471L6.41406 15.0091M8.28906 13.1471L10.1641 15.0091M3.78906 8.67838L5.66406 10.5404M5.66406 10.5404L3.78906 12.4023M5.66406 10.5404H10.5391M5.66406 10.5404H2.28906" stroke="#141B34" stroke-width="1.5" stroke-linecap="round" stroke-linejoin="round"/>
</svg>
