<svg width="18" height="15" viewBox="0 0 18 15" fill="none" xmlns="http://www.w3.org/2000/svg">
<path d="M13.9621 13H14.3297C15.1921 13 15.878 12.6071 16.4939 12.0577C18.0585 10.6619 14.3806 9.25 13.125 9.25M11.625 1.80158C11.7953 1.7678 11.9722 1.75 12.1536 1.75C13.5185 1.75 14.625 2.75736 14.625 4C14.625 5.24264 13.5185 6.25 12.1536 6.25C11.9722 6.25 11.7953 6.2322 11.625 6.19842" stroke="#141B34" stroke-width="0.8" stroke-linecap="round"/>
<path d="M3.36098 10.0834C2.47675 10.5572 0.158353 11.5248 1.57041 12.7356C2.26019 13.327 3.02843 13.75 3.99429 13.75H9.50571C10.4716 13.75 11.2398 13.327 11.9296 12.7356C13.3416 11.5248 11.0232 10.5572 10.139 10.0834C8.06551 8.9722 5.43449 8.9722 3.36098 10.0834Z" stroke="#141B34" stroke-width="0.8"/>
<path d="M9.75 3.625C9.75 5.28185 8.40685 6.625 6.75 6.625C5.09315 6.625 3.75 5.28185 3.75 3.625C3.75 1.96815 5.09315 0.625 6.75 0.625C8.40685 0.625 9.75 1.96815 9.75 3.625Z" stroke="#141B34" stroke-width="0.8"/>
</svg>
