<svg width="50" height="50" viewBox="0 0 50 50" fill="none" xmlns="http://www.w3.org/2000/svg">
<circle cx="25" cy="25" r="24" stroke="#BC7635" stroke-linecap="round" stroke-dasharray="2 2"/>
<rect x="8" y="8" width="34" height="34" rx="17" fill="#BC7635"/>
<path d="M32.1848 24.6693L22.4171 19.1882C22.3323 19.1311 22.239 19.0919 22.1373 19.0705C22.0356 19.0491 21.9338 19.0384 21.8321 19.0384C21.5268 19.0384 21.2682 19.1276 21.0562 19.306C20.8443 19.4844 20.7383 19.6949 20.7383 19.9376V30.8997C20.7383 31.1566 20.8443 31.3743 21.0562 31.5527C21.2682 31.7311 21.5268 31.8203 21.8321 31.8203C21.9338 31.8203 22.0356 31.806 22.1373 31.7775C22.239 31.7489 22.3323 31.7133 22.4171 31.6704L32.1848 26.1894C32.3374 26.1038 32.4561 25.9931 32.5409 25.8575C32.6257 25.7219 32.6681 25.5756 32.6681 25.4186C32.6681 25.2616 32.6257 25.1189 32.5409 24.9904C32.4561 24.862 32.3374 24.7549 32.1848 24.6693Z" fill="white"/>
</svg>
