<svg width="48" height="40" viewBox="0 0 48 40" fill="none" xmlns="http://www.w3.org/2000/svg">
<g clip-path="url(#clip0_347_66409)">
<mask id="mask0_347_66409" style="mask-type:luminance" maskUnits="userSpaceOnUse" x="0" y="0" width="48" height="40">
<path d="M47.91 0.00390625H0V39.9983H47.91V0.00390625Z" fill="white"/>
</mask>
<g mask="url(#mask0_347_66409)">
<path d="M15.8728 31.7537C7.10734 31.7537 0 24.6421 0 15.8767C0 15.1935 0.0416609 14.5186 0.129149 13.8603C0.149979 13.702 0.17081 13.5395 0.195806 13.3812C1.07902 7.79449 4.87849 3.1743 9.98611 1.13292C10.1153 1.08292 10.2444 1.03293 10.3736 0.982937C12.0858 0.349691 13.9397 0.00390625 15.8728 0.00390625C16.4227 0.00390625 16.9643 0.0330689 17.4976 0.087228C17.6184 0.0997263 17.735 0.112225 17.8558 0.128889C18.914 0.262204 19.9389 0.495504 20.9221 0.824625C21.0387 0.86212 21.1596 0.903781 21.2762 0.945442C27.3837 3.15763 31.7456 9.00682 31.7456 15.8725C31.7456 24.6421 24.6382 31.7495 15.8728 31.7495" fill="#D7B038"/>
<path d="M15.875 31.0973C7.47198 31.0973 0.65625 24.2858 0.65625 15.8786C0.65625 15.2246 0.697911 14.5788 0.777067 13.9456C0.797897 13.7914 0.818727 13.6414 0.839558 13.4873C1.68944 8.12971 5.33478 3.70114 10.2341 1.74308C10.3549 1.69309 10.4799 1.64726 10.6049 1.60143C12.2463 0.993183 14.0252 0.664062 15.8791 0.664062C16.4041 0.664062 16.9248 0.693225 17.4373 0.743218C17.5539 0.755716 17.6664 0.768215 17.7789 0.780713C18.7912 0.905696 19.7744 1.13483 20.716 1.44729C20.8285 1.48478 20.9409 1.52228 21.0576 1.56394C26.9109 3.68448 31.0937 9.29204 31.0937 15.8786C31.0937 24.2858 24.2821 31.0973 15.875 31.0973Z" fill="white"/>
<path d="M13.6224 6.46868L13.7807 6.48118L13.6515 6.81863L13.814 6.59366L13.764 6.68948L13.8932 6.66032L13.7807 6.99777L14.1806 6.93112L14.0682 7.0436L14.1348 7.13942L14.2473 7.11026L14.1973 7.33106L13.814 7.47687L13.9265 7.44354L13.9557 7.55603L13.6682 7.73517L14.039 7.86432L14.2265 7.79766L14.1181 7.91015L13.8932 7.92681L13.5391 8.23094L13.9557 8.16844L14.0223 8.06846L14.214 8.08512L14.9514 7.9893L15.0639 7.89348L14.8889 7.83099L15.1097 7.66851L15.1263 7.5102L14.7889 7.47687L14.8722 7.36439L14.7264 7.25191L14.8222 7.21858L14.5806 7.01027L14.5014 6.77281L14.1806 6.64366L14.3098 6.577L14.2598 6.53117L14.4056 6.41869L14.4848 6.21038L14.039 6.24371L14.1015 6.18122L14.0515 6.14789L14.2598 6.03541L14.2265 5.96875L13.9098 5.98541L13.8265 6.06874V6.14789L13.7015 6.24371L13.764 6.3062L13.6224 6.46868Z" fill="#D7B038"/>
<path d="M13.4259 7.65353L13.5217 7.17443L13.6842 7.04528L13.5717 6.87031L13.3634 6.89947L13.3301 6.82031L13.2843 6.9203V6.85364L13.1551 6.87031L13.026 6.99945L13.1385 7.01195L13.0426 7.11194L12.8177 7.09111L12.7219 7.17443L12.8343 7.22026L12.7219 7.28691L12.7552 7.35357L12.9302 7.38273L12.7344 7.54521L12.9593 7.52855L12.6094 7.65353L12.7052 7.68686L12.6094 7.74935H12.7344L12.6385 7.81601L13.4259 7.65353Z" fill="#D7B038"/>
<path d="M11.3132 3.56994L10.7508 3.52411L10.2717 3.60327L10.5467 3.52411L10.1467 3.50745L10.2925 3.47412L10.3092 3.39496L10.805 3.32831L10.5175 3.28248L10.4509 3.23665L10.4842 3.20332L10.9508 3.31581L11.1091 3.50745H11.2549L11.2882 3.42829L11.4299 3.50745L11.3841 3.3783L11.4799 3.26581L11.3216 3.31164L11.4507 3.21582L11.2424 3.24498L11.3716 3.16583L11.0508 3.05334L10.8758 3.1325L10.905 3.05334L11.0508 3.00752L10.7133 2.99085L11.0508 2.9242L10.7467 2.8617L10.905 2.87837L11.2424 2.74922L11.4965 2.87837L11.834 2.81588L11.8798 2.73672L11.559 2.63674L11.6549 2.59091L12.1381 2.62424L11.834 2.57841L11.9132 2.49509H11.7715L11.9298 2.44926L11.7215 2.38677L12.1048 2.46593L12.1548 2.33678L11.9298 2.28678L12.1548 2.25762L11.8465 2.22429L11.7174 2.12847L12.4714 2.06598V2.00349L12.1173 1.98683L12.1965 1.9535L12.1506 1.92017L12.3756 1.9035L12.1506 1.85351L11.9423 1.9035L12.1631 1.74103L12.1131 1.72436L12.1465 1.69103L12.5131 1.59521L12.3839 1.62854L12.4672 1.53272L12.8047 1.45357L12.3714 1.52022L12.3548 1.45357L13.0255 1.35775H12.2423L13.2505 1.31192L13.2338 1.26193L13.6879 1.18277L13.213 1.04529C13.213 1.04529 13.1963 1.04529 13.1921 1.04529C13.113 1.04529 13.0338 1.00363 12.9547 0.961968C12.8755 0.924473 12.7964 0.882812 12.7255 0.882812C12.7172 0.882812 12.7047 0.882812 12.6964 0.882812L12.813 1.1911L12.4048 0.907809C9.78429 1.51606 7.41378 2.79505 5.49738 4.55314L5.6432 4.84893L5.73902 4.88226H5.65986L5.69319 4.92809L5.49322 4.99474C5.46822 5.02807 5.43906 5.0614 5.41406 5.09056L5.43906 5.29887L5.53488 5.3447L5.47239 5.41135L5.58487 5.50717L5.52238 5.5405L5.66403 5.50717L5.55571 5.55717L5.6182 5.61966L5.55571 5.65299H5.74735L5.57237 5.68632L5.81401 5.78214L5.68486 5.82796L6.23062 5.7988L6.1348 5.86129L6.28061 5.91128L6.20145 6.0071L6.28061 6.04043L6.6014 6.0071L6.52224 5.91128L6.68055 5.89462L6.95551 5.59049L6.97218 5.42802L6.90969 5.38219L7.15132 5.30303L7.08466 5.25304L7.21381 5.26971L7.19715 5.20305L7.38879 5.15722L7.29297 5.09473L7.43878 5.11139L7.45544 5.01557L7.3263 4.96975L7.55126 4.95308L7.42212 4.82393L7.46794 4.77394L7.63042 4.79061L7.72624 4.74478L7.68041 4.68229L7.7929 4.64896H8.04703L8.06369 4.5698H8.13035L8.20951 4.45732L8.31782 4.49065L8.17618 4.5698L8.25533 4.60313L8.28866 4.53647L8.49697 4.58647L8.57612 4.45732L8.76776 4.47398L9.03856 4.31151L9.16771 4.15319L9.40934 4.06987L9.35935 3.94489L9.47183 4.06987L9.72596 4.0532L9.82178 3.99071L10.48 3.92822L11.3299 3.5741L11.3132 3.56994Z" fill="#D7B038"/>
<path d="M18.0677 1.3341L17.9552 1.36743L18.0677 1.40076L18.5343 1.38409L18.2135 1.43409L18.8717 1.49658L19.1259 1.46325L19.3217 1.3341L18.9176 1.3216L18.9634 1.27161L18.6926 1.3216L18.7259 1.25495L18.6468 1.23828L18.5968 1.35077L18.1802 1.23828L18.1468 1.27161L18.2135 1.30494L18.101 1.27161L18.1468 1.3341L17.8594 1.3216L18.0677 1.3341Z" fill="#D7B038"/>
<path d="M17.0208 1.47784L16.9708 1.52784L17.0833 1.557L16.925 1.54034L17.2124 1.62366L17.0833 1.64032L17.1791 1.68615L17.4374 1.65282L17.4041 1.64032L17.4374 1.59033L17.5499 1.557L17.5832 1.64032L17.7415 1.59033L17.7124 1.64032L17.854 1.65282L17.2749 1.73198L17.3249 1.78197L17.7874 1.75281L17.4707 1.79863L17.6624 1.84863L17.3416 1.83196L17.4041 1.91112L17.7249 1.94445L17.5957 1.96111L17.7249 2.04027L17.8374 2.0236L17.9498 1.86529L17.9165 1.84863H18.0123L18.0332 1.73198H18.1248V1.65282L18.4956 1.57366L18.0623 1.49451L18.0123 1.41535L17.8665 1.46118L17.9165 1.38202L17.679 1.33203L17.5832 1.38202L17.6915 1.54034L17.4374 1.38202L17.3083 1.43202L17.3583 1.49451L17.0666 1.43202L17.2958 1.36536L16.8125 1.43202L16.9083 1.51117L17.0208 1.47784Z" fill="#D7B038"/>
<path d="M26.3685 25.9035L26.4477 26.0327L26.5268 25.9035L26.4143 25.2328L26.256 25.0078L26.1602 25.0703V25.3119L26.0144 25.4536L25.9352 25.4078L25.9519 25.5661L25.8728 25.6119L25.9519 25.6952L25.8103 25.791L25.7769 25.7244L25.7603 25.916L25.6645 25.8535L25.5686 25.9493L25.602 26.0743L25.4728 25.9785L25.0687 26.1202L24.9271 26.4743L25.0562 27.1159L24.7188 27.6949L24.7646 28.2865L25.3062 27.9866C25.7269 27.6658 26.2019 27.2408 26.4185 27.0409C26.4602 27.0034 26.4977 26.9617 26.5393 26.9242L26.3727 26.2326V25.8952L26.3685 25.9035Z" fill="#D7B038"/>
<path d="M24.7818 3.37129L23.8153 3.73374L23.7611 3.88372L23.5861 3.96288L23.232 3.77124L23.5028 3.69208L23.4403 3.59626L22.8488 3.48378L23.0237 3.56293L23.0404 3.80457L23.182 3.88372L23.1945 4.15868L22.8113 3.99621L22.4113 4.22117L22.6696 4.49613L22.1363 4.4628L22.1697 4.41697L21.8822 4.31699L21.8656 4.44613L22.103 4.49613L22.203 4.64194L22.0739 4.67527L21.4989 4.50029L21.5114 4.40031L21.399 4.29199L21.4489 4.16285L20.8865 3.87539L22.1863 4.11702L22.5696 3.94205L22.5863 3.86289L22.5071 3.73374L21.4823 3.38379L20.9532 3.35046L20.7907 3.28797L20.9657 3.25464L20.7407 3.20882L20.7115 3.27131L20.5824 3.24214H20.5657L20.3449 3.27131L20.3908 3.22548L20.1658 3.15882L20.5657 3.09216L20.2324 2.99634L20.0408 3.0755L20.0866 3.04634L20.0116 3.01301L20.1075 2.96302L19.9492 2.92969L19.87 3.07133L19.7908 3.10466L19.7742 2.97551L19.5492 3.16715L19.6492 2.99218L19.5034 2.96302L19.2326 3.18798L18.9285 3.12549L19.0243 3.25464L18.8826 3.18798L18.6868 3.35046L18.7035 3.20882L18.6035 3.3213L18.5868 3.24214H18.5077L18.491 3.30464L18.5702 3.37129L18.3452 3.30464L18.2327 3.41712L18.2619 3.47961L18.0536 3.5296L18.2452 3.5421L18.0203 3.57543L18.0369 3.65459L17.9411 3.62126L17.8244 3.74624H17.9244L17.7161 3.77957L17.4912 3.95454L17.5078 4.06703L17.3495 4.14618L17.462 4.16285L17.3328 4.21283L17.3662 4.27533L17.3037 4.2295L17.2704 4.29616L17.3204 4.32532L17.1412 4.39198L17.2079 4.4253L17.1412 4.4878L17.0454 4.47113L16.8204 4.64611L16.8996 4.72526L16.4038 4.87108L16.2913 4.9044L16.4038 4.98356H16.1788L16.2122 5.06688L15.9372 5.08355L16.1788 5.1502L15.9205 5.19603L15.9705 5.21269L15.9205 5.33768L16.1955 5.27519L16.2913 5.32101L16.3871 5.22519L16.358 5.30435H16.4205L16.2747 5.40017L15.9205 5.3835L15.9372 5.46266L16.0372 5.446L15.9247 5.52515L16.0039 5.54182L15.9872 5.63764L16.1455 5.47516H16.2872L16.033 5.65013L16.1455 5.6668L15.9205 5.74595H16.1455L15.9664 5.93759L16.208 6.03341L16.1913 6.09591L16.3996 6.11257L16.7663 5.84177L16.8954 5.85844V5.6793L16.9412 5.72512L16.9746 5.6293L16.9912 5.80428L17.0871 5.83761V5.99592L17.2329 6.1584L17.2162 6.28338L17.4287 6.49168L17.3495 6.57084L17.4453 6.73332L17.4162 6.77914L17.6745 6.79581L17.737 6.62083L18.0453 6.5875L18.1744 6.25005L18.1911 6.02508L18.1286 5.99175L18.2077 5.97509L18.0827 5.94176L18.5452 5.76678L18.416 5.75012L18.591 5.62097L18.3202 5.42933L18.2702 5.47516V4.96273L18.4452 4.85025L19.0409 4.49613L18.9618 4.40031L19.0118 4.27116L19.1243 4.22117L19.0743 4.17117L19.4742 4.12535L19.7159 4.23783L19.7825 4.36698L19.62 4.40031L19.0909 4.83358L18.9785 4.9294L19.1243 5.21686L19.0743 5.42517L19.3617 5.50432L19.4409 5.60431L19.3951 5.63347L20.3116 5.44183L20.5032 5.4085V5.50432L20.8407 5.60431L20.4241 5.65013L20.3741 5.72929L19.9575 5.6668L19.5409 5.79178L19.5867 6.00425H19.7492L19.7159 6.37087L19.3784 6.16256L19.2201 6.20839L19.0909 6.41669L19.1576 6.89996L19.0451 6.86663L19.1243 6.69166L18.8368 7.02911L18.6743 7.07494L18.641 6.94579H18.3535L17.712 7.20408L17.4537 7.04577L17.3412 7.07494L17.3912 7.02911L17.0079 7.15826L17.0704 7.06244L16.8621 7.04577L16.7663 6.91662L16.7829 6.69582L17.0412 6.55001L16.8787 6.47085L16.9579 6.18339L16.5246 6.3917L16.4788 6.74582L16.5913 6.80831V6.92079L16.6538 7.01661L16.5913 7.0666L16.6704 7.19575L16.5746 7.21242L16.5913 7.34157L16.3955 7.22492L16.2497 7.30824L16.3455 7.37073L16.2663 7.35406H15.9289L15.8997 7.60819L15.8372 7.57487V7.44572L15.6414 7.70401L15.8039 7.74984L15.4998 7.86233L15.3373 7.92482L15.1457 7.97064L15.0998 8.16645L14.8082 8.2956L14.8582 8.37475L14.5207 8.39142L14.3458 8.2956L14.4249 8.58306L14.0083 8.53723L13.7375 8.61639L13.7833 8.80803L14.3458 8.97051H14.2666V9.08299L14.4583 9.21214L14.5416 9.4996L14.4791 9.43711L14.3666 9.94954L14.2541 10.0162L12.8751 9.93704L12.6043 10.1287L12.7335 10.3203L12.6835 10.4495L12.7002 10.6869L12.4752 11.2827L12.6335 11.3452L12.571 11.7618L12.9085 11.716L13.0876 11.7493L13.3251 12.0201L13.5959 11.8618L14.125 11.8284L14.6249 11.316L14.5457 11.1244L14.8165 10.7244L15.329 10.4495L15.3456 10.287L15.3623 10.062L15.5539 9.98286L15.7789 10.0162L16.0205 10.0953L16.3247 9.88704L16.5996 9.72457L16.9037 9.85372L17.1287 10.287L18.1244 10.9119L18.2702 11.266L18.1577 11.4243L18.2369 11.5035L18.4744 11.1994L18.4577 11.091L18.3327 11.0077L18.3785 10.8452L18.4702 10.7828L18.7452 10.9744L18.7618 10.9077L18.6493 10.7328L18.1869 10.5411L18.2036 10.3953L18.0286 10.4286L17.9161 10.3453L17.6411 9.9412L17.3995 9.79956L17.3495 9.4621L17.6536 9.41628L17.7036 9.59542L17.8619 9.48293L18.1827 9.9662L18.3744 9.99953L18.5327 10.112H18.4244L18.9368 10.4161L18.9993 10.4495L18.9493 10.8161L19.1409 11.0244L19.3659 11.216L19.2867 11.2494L19.3992 11.391H19.7367L20.0575 11.5826L20.0408 11.4368L19.7034 11.2285L19.7992 11.2119L19.7825 11.116L19.8617 11.1619L19.6992 10.9411V10.7828L19.9033 10.9577L19.8742 10.8744L20.0033 10.9577L19.97 10.8286L20.0825 10.8952L19.9242 10.7661L20.0825 10.6828L20.4699 10.7328L20.6449 10.7494L20.5157 10.9119L20.8032 10.6703L21.1073 10.6578L21.1198 10.5911L20.9282 10.512L20.8782 10.4161L20.749 10.2537L20.974 9.89954L21.0073 9.56209V9.70374L21.1365 9.60792L21.1532 9.4621L21.3156 9.27046L21.249 9.19131L21.3281 9.23713L21.6156 9.06216L21.6947 9.15798H21.5656L21.6614 9.17464L21.6114 9.22047L22.028 9.27046L21.8031 9.44544L21.9947 9.5121L22.0239 9.67041L22.153 9.71623L22.4571 9.5246L22.6696 9.54126L22.6821 9.42878L22.3447 9.45794L22.2155 9.29546L22.0239 9.2163L22.1238 9.18714L22.303 9.31629L22.3322 9.15381V9.24963L22.478 9.10799L23.1695 8.92884L23.2154 8.97884L23.0529 9.09132H22.8946L23.0696 9.24963L22.7029 9.49127L23.8111 10.1495L23.9236 10.3578L23.9069 10.487L23.6653 10.6494L23.1695 10.6619L22.7654 10.5661L22.4613 10.3578L22.078 10.3745L21.5989 10.6494L21.1657 10.5828L21.1823 10.6786L21.324 10.7286L20.6366 10.8077L20.5574 10.9202L20.5116 11.0619L20.6741 11.0452V11.2868L20.7532 11.3535L20.5949 11.2868L20.5782 11.3993L20.774 11.466L20.8365 11.7535L21.0615 11.7368L20.8657 11.8493L21.1198 11.7993L21.4281 11.9784L21.6697 11.7868L22.1155 12.0284L22.503 11.8034L22.7113 11.8826L22.8238 11.8034V12.0951L22.8571 12.3992L22.6654 12.8491L22.4738 13.3491L22.2322 13.4116L22.0072 13.3491L21.928 13.2699L21.6531 13.2866L21.2531 13.4782L20.3408 13.2366L19.8783 13.0908L19.7992 12.9491L19.3492 12.9325L19.1243 13.1283L19.1076 13.5157L18.8826 13.6282L18.5785 13.4366L18.1452 13.3241L17.9994 13.0491L17.1162 12.8283L16.7788 12.6033L17.0829 12.2492L16.9371 11.9951L17.0496 11.7535L16.9204 11.8159L16.7413 11.6743L16.5163 11.7701L15.6664 11.7868L14.8165 11.8993L14.0458 12.2992L13.5167 12.2659L13.2959 12.0576L13.1834 12.1034L12.9585 12.5533L12.3669 13.0033L12.1877 13.3241L12.2044 13.674L12.1086 13.8198L12.0294 13.9323L11.3712 14.3323L11.242 14.5864L11.0004 14.778L10.9046 15.0655L10.4046 15.8529L10.3255 16.1737L10.5046 16.3653L10.4213 16.6403L10.5213 16.8777L10.3755 17.5526L10.2797 17.8068L10.1172 17.9193L10.3588 18.24L10.2963 18.3859V18.5608L10.5046 18.7691L10.7463 18.7025L10.6005 18.7691L10.6963 18.9774L11.1295 19.4899L11.2087 19.8273L11.5628 20.0856L12.0752 20.6022L12.5127 20.7939L13.1834 20.6022L13.6 20.6189L13.875 20.7314L14.6624 20.3481L14.8374 20.3023L15.0498 20.2856L15.3998 20.2731L15.5789 20.4189L15.6872 20.5314V20.7064L15.8789 20.8647L16.408 20.723L16.5538 20.898L16.7121 20.9313L16.7746 21.1396L16.7246 21.4438L16.6288 21.7021L16.6788 21.7646L16.6288 21.8937L16.7579 21.9895L16.6121 21.9729L16.5955 22.152L16.483 22.2478L16.6121 22.5686L17.0621 23.1435L17.287 23.4477L17.3537 23.656L17.3703 23.7684L17.5953 24.3309L17.5453 24.585L17.7078 25.0974L17.6786 25.4349L17.3745 25.8515L17.1995 26.8472L17.2162 27.0722L17.8578 28.2928V28.7428L18.0328 29.6385L18.341 29.9926L18.6743 30.9758C18.6743 30.9758 18.6785 30.9758 18.691 30.9758C18.7826 30.9591 18.8743 30.9424 18.966 30.9216C19.4409 30.8216 20.4366 30.5883 21.5281 30.1634C21.7156 30.0884 21.903 30.0134 22.0864 29.9301L22.2572 29.2885L22.1613 29.2593L22.2405 29.1469L22.7238 28.9386L22.8821 28.7469L22.9321 28.197L22.7404 27.7679L22.7571 27.5763L23.432 26.9347L23.8319 26.7722L24.1986 26.3556L24.2486 24.9266L24.1236 24.8141L24.0278 24.51L24.0569 24.0101L23.8986 23.7893L24.0111 23.3227L24.2694 22.7936L24.5568 22.4895L24.8151 22.0895L25.5984 21.4271L26.0525 20.9147L26.3399 20.4647L26.6274 19.7565L26.7899 19.1941L26.9024 19.1774L26.8232 19.1441L26.8524 18.7775L26.7274 18.7316L26.3733 18.8733L25.2151 19.1649L24.9276 18.8608L24.7527 18.8275L24.9443 18.6983L24.8651 18.4734L24.4152 17.9942L24.1611 17.8984L24.0819 17.736L24.0361 17.8151L23.6986 17.0152L23.4278 16.7736L23.2695 15.9237L22.9654 15.6196L22.9154 15.4113L22.9821 15.3946L22.8363 15.253L22.3863 14.2739L22.1947 14.0156L22.1447 13.7115L22.5321 14.3198L22.6113 14.2864L22.7113 13.8865H22.7404L22.6904 14.2573H22.8196L23.4112 15.2863L23.6528 15.4446L23.8278 15.8321L23.9069 16.3153L24.3069 16.6361L24.7735 17.5027V17.8068L25.0151 18.5275H25.3484L25.5567 18.3484L26.2649 18.1567L26.4566 17.9651L27.0982 17.7235L27.1148 17.561L27.2731 17.4485L27.7231 17.3527L27.8689 17.111L28.0605 17.0652L28.1438 16.8569L28.3813 16.7611L28.398 16.3903L28.5271 16.3736L28.7854 15.8112L28.5146 15.5071L28.0522 15.3321L27.9064 15.1405L27.8772 14.9322L27.8939 14.753L27.8147 14.8197L27.3648 15.3654L26.8649 15.3821L26.7399 15.303L26.7565 15.2071L26.769 14.8697L26.6607 14.7905L26.5941 15.178L26.4149 14.8863L26.3691 14.6322L25.9358 14.1198L25.7608 13.9115L25.89 13.8157L25.8233 13.7365L25.9525 13.7198L25.9983 13.574L26.1733 13.749L26.2733 13.699L26.6899 14.3239L27.2356 14.6447L27.4731 14.6905L27.8897 14.5156L28.0022 14.5822L28.1605 14.9197L29.1729 15.0655L29.9769 15.0322L30.3269 15.0155L30.6185 15.4154L30.7477 15.4488L30.9893 15.7071L31.2684 15.6696C31.1976 10.5953 28.6688 6.11674 24.8235 3.36713M21.0282 5.6293L20.7865 5.27519L20.949 5.17937L21.2365 5.30851L21.349 5.46683L21.0282 5.6293Z" fill="#D7B038"/>
<path d="M20.9047 5.18359L20.7422 5.27941L20.9838 5.63353L21.3046 5.47522L21.1921 5.31274L20.9047 5.18359Z" fill="#D7B038"/>
<path d="M43.8225 28.72C42.8684 27.3077 41.6144 25.4996 41.6144 25.4996L40.2104 23.3083L41.3894 20.3004C45.7055 16.5926 47.6261 14.6303 47.147 9.5727C46.6637 4.51507 38.119 0.982241 35.0236 1.68214C31.9282 2.37788 28.8745 4.86502 27.958 5.95653C27.0414 7.04388 27.8288 7.08971 27.6955 8.09373C27.5663 9.09776 26.2124 10.1434 25.125 10.7517C24.0335 11.3641 23.4252 11.7141 23.4669 12.1473C23.5127 12.5806 24.6001 13.4138 24.6001 13.4138C24.6001 13.4138 24.4709 13.8929 24.2501 14.4595C24.0335 15.0261 23.946 15.2011 24.121 15.4177C24.296 15.6385 25.6458 16.2884 25.6458 16.2884H24.3793C23.5502 16.2884 23.5502 16.9883 23.9877 17.5091C24.4251 18.034 24.2501 18.2965 23.7252 18.9047C23.2003 19.5171 22.942 20.0379 23.3753 20.9128C23.8127 21.7877 25.9916 21.7002 25.9916 21.7002C25.9916 21.7002 27.0372 23.5333 27.3872 25.1039C27.7371 26.6745 29.4786 28.9408 29.916 30.1615C30.3535 31.3822 29.6535 32.9528 29.6535 32.9528C27.9121 34.9483 26.8331 37.2772 26.2374 38.8561L25.9582 39.6477C33.2989 38.5687 39.673 34.5026 43.8183 28.7284" fill="#F8E9B4"/>
<path d="M21.1437 35.9883C21.1437 35.9883 20.8729 33.7177 20.7271 33.3095C20.5812 32.9012 19.3689 31.3597 19.3689 31.3597C18.3191 31.6222 16.7693 31.718 16.7693 31.718C16.7693 31.718 14.9487 28.8767 14.6071 28.2643C14.2655 27.6519 12.499 26.0896 11.6867 25.2064C10.8701 24.3232 10.3952 25.4106 10.5993 26.2938C10.8035 27.177 12.0241 28.8101 12.1616 29.3517C12.2949 29.8933 11.2784 30.5057 11.2784 30.5057C11.2784 30.5057 9.10368 29.6933 7.94967 29.1475C6.79567 28.6018 5.70832 27.4478 4.95842 26.702C4.21269 25.9563 2.92123 25.0023 2.51295 25.0023C2.10467 25.0023 1.97136 25.548 2.30881 26.023C2.65043 26.4979 4.34601 28.9434 5.02508 29.6225C5.70415 30.3015 6.72484 31.7263 7.26643 32.6804C7.80803 33.6344 8.82872 33.901 11.2076 34.7176C13.5864 35.5341 13.8572 36.5507 13.9947 37.2297C14.0322 37.4089 14.0363 37.7713 14.028 38.1963C14.028 38.2546 14.0155 38.4379 13.9989 38.692C16.3652 39.4378 18.8773 39.8585 21.4728 39.9169L21.3062 37.788L21.1395 35.9924L21.1437 35.9883Z" fill="#F8E9B4"/>
<path d="M32.4382 23.3514C32.0841 23.2056 26.1641 22.0391 26.1641 22.0391C26.1641 22.0391 27.1973 23.793 27.3139 24.4387C27.4306 25.0886 27.6097 25.8552 28.0805 26.5884C28.5512 27.3258 29.9094 29.6797 29.9969 30.0921C30.0844 30.5046 29.8511 32.8626 29.8511 32.8626L32.6798 30.8587C32.6798 30.8587 32.4132 30.0921 32.2382 29.4172C32.0632 28.7381 32.1799 27.9424 32.2091 27.0884C32.2382 26.2343 32.4757 25.2053 32.7673 24.4679C33.0631 23.7305 32.7965 23.4972 32.4465 23.3472" fill="white"/>
<path d="M39.5958 2.35177C33.4092 0.439532 30.143 3.76824 28.7265 5.12221C27.3142 6.47619 27.46 6.8303 27.5766 7.41772C27.6933 8.00514 27.5475 8.62589 27.1642 9.24664C26.7809 9.86322 25.0437 10.7798 24.5146 11.0131C23.9855 11.2464 23.4564 11.7171 23.5147 12.2212C23.573 12.7212 24.6354 13.3419 24.6354 13.3419C24.6354 13.3419 24.3396 14.1085 24.048 14.725C23.7522 15.3458 23.9896 15.2875 24.1355 15.4333C24.2813 15.5833 25.7269 16.2873 25.7269 16.2873C25.7269 16.2873 24.9603 16.2873 24.4313 16.2582C23.9022 16.229 23.873 16.3165 23.8147 16.5831C23.748 16.8831 23.9605 17.3788 24.1688 17.6996C24.3729 18.0246 24.1396 18.437 23.9022 18.762C23.6647 19.0869 22.9315 19.6744 23.3731 20.795C23.8147 21.9157 26.2685 21.6699 26.2685 21.6699C24.5604 21.6116 25.0645 20.6992 25.906 19.8202C26.2935 19.4161 27.76 18.3495 28.3807 17.8454C29.0014 17.3455 29.5889 17.2789 28.6473 16.3748C27.0101 14.8 27.9974 14.4292 28.6182 13.9585C29.2347 13.4877 30.947 12.8711 31.1803 12.2795C31.4178 11.688 30.4762 10.8339 30.4762 10.8339C30.4762 10.8339 31.3595 10.8922 31.8594 10.8631C32.3593 10.8339 32.2718 10.4798 31.5928 9.77156C30.9137 9.06333 30.7679 8.5634 30.7095 7.91765C30.6512 7.26774 29.1889 7.17609 29.1306 7.09277C29.0723 7.00528 29.2347 6.72199 29.3681 6.56784C30.0013 5.83461 33.3008 1.1311 39.8416 3.47244C47.2781 6.13457 47.3489 12.0712 47.3489 12.0712C47.7322 9.21331 45.7866 4.264 39.6041 2.35177" fill="white"/>
<path d="M37.5473 18.0051C37.0474 17.9343 36.6308 18.0926 36.3475 18.4217C36.0642 18.7467 36.3058 19.2341 36.5225 19.2716C36.6558 19.2925 36.8516 19.1175 36.7391 18.9883C36.6308 18.855 36.66 18.5467 36.9807 18.3967C37.3099 18.2426 37.6182 18.4134 37.9473 18.3967C38.4264 18.3759 39.0721 18.1384 39.3971 17.6176C39.6387 17.2344 39.9637 16.6387 39.5721 15.9388C39.0555 15.018 37.9556 15.468 37.8931 15.6138C37.7181 16.0262 37.8348 15.9262 38.0889 15.8096C38.3264 15.7012 38.7722 15.6721 39.1346 16.1596C39.3929 16.5095 39.2013 17.0094 39.0055 17.3386C38.8055 17.6677 38.1806 18.1051 37.5432 18.0135" fill="#D7B038"/>
<path d="M29.7284 10.1427C29.4909 9.91357 28.7619 9.33448 28.5619 9.21367C28.3619 9.08869 28.2828 9.29699 28.1911 9.48863C28.0953 9.6761 28.0703 10.201 28.0703 10.3218C28.0703 10.4343 28.212 10.4343 28.6202 10.5218C28.8035 10.5593 30.1784 10.6843 30.1784 10.6843C30.1409 10.5968 29.97 10.3718 29.7326 10.1427" fill="#D7B038"/>
<path d="M24.5141 12.7486C24.1974 12.6653 24.1891 12.6987 24.2099 12.7653C24.2266 12.8111 24.6515 13.0903 24.939 13.2486C25.2265 13.4069 25.3473 13.4277 25.4306 13.3986C25.5181 13.3652 25.6889 13.3236 25.4098 13.0653C25.1306 12.807 24.8348 12.832 24.5141 12.7486Z" fill="#D7B038"/>
<path d="M38.112 1.63349C32.4003 0.325337 28.1342 5.27048 27.6885 5.82041C26.9469 6.73278 27.2844 6.86193 27.3843 7.60766C27.3843 7.60766 27.476 8.60752 26.8178 9.30742C26.3137 9.84485 25.2721 10.4323 24.5681 10.8364C23.864 11.2405 23.3599 11.3738 23.2557 11.7779C23.1558 12.182 23.0599 12.4028 24.0681 13.0736L24.4931 13.4443C24.3681 13.7985 24.3556 13.8318 24.0973 14.3567C23.8598 14.8275 23.5265 15.3066 23.964 15.5107C24.3973 15.7107 25.3096 16.1815 25.3096 16.1815C25.3096 16.1815 24.2681 16.1148 24.064 16.1148C23.8598 16.1148 23.6432 16.2606 23.5807 16.6022C23.5224 16.9022 23.4932 17.0605 23.8307 17.4605C24.1681 17.8646 24.1306 18.2312 23.7973 18.5353C23.4599 18.8394 22.7017 19.6143 22.9225 20.5184C23.1599 21.4932 23.6432 21.8098 25.4429 21.9473C25.5179 21.9557 25.5888 21.964 25.6596 21.9682C25.6929 22.014 26.4886 23.0472 26.7178 23.5388C26.9552 24.0429 27.0885 24.7469 27.326 25.6218C27.5343 26.4009 28.0134 27.0758 28.5675 27.9048C28.6342 28.0048 28.7008 28.1048 28.7716 28.209C29.4091 29.1838 29.7798 30.0587 29.8132 30.5628C29.8423 31.0294 29.584 32.4792 29.5507 32.6875C29.4341 32.7958 29.3257 32.9083 29.2133 33.0208C29.1049 33.1291 28.8341 33.4041 28.6925 33.579C27.2344 35.383 26.247 37.416 25.6346 38.9533C25.6346 38.9616 25.6179 38.9991 25.5929 39.0658C25.5679 39.1324 25.5346 39.2241 25.4846 39.3532C25.4429 39.4616 25.3971 39.5949 25.3388 39.7574C32.8502 38.8325 39.4035 34.8872 43.8487 29.2172C43.9779 29.038 44.107 28.8547 44.232 28.6756C44.107 28.4964 43.9945 28.3214 43.8362 28.1006C43.7946 28.0382 43.7487 27.9757 43.7071 27.9132C42.6905 26.4675 41.2699 24.4886 41.2699 24.4886C40.8991 23.9054 40.4992 23.4138 40.5658 23.143C40.6325 22.8722 41.2949 20.7017 41.5324 20.4642C41.7698 20.2309 47.0983 16.9939 47.6232 12.457C48.1481 7.92012 45.5693 3.34991 38.1162 1.64182M46.915 12.5236C46.715 14.2526 45.7276 16.6314 41.4574 19.7185L41.1408 19.9601C40.8783 20.4767 39.9951 23.1097 39.9951 23.1097C39.9076 23.343 39.9284 23.6888 40.4325 24.4053C40.5408 24.5595 41.8532 26.4092 42.8822 27.909C43.0655 28.1798 43.2405 28.4381 43.3988 28.6714C39.3077 33.8915 33.4252 37.6868 26.4053 39.0116C26.4636 38.8491 26.5261 38.6783 26.5386 38.6492C27.3302 36.6578 28.2426 35.0122 29.3257 33.7873C32.0045 30.7628 35.504 29.7712 37.6371 29.4505C38.1953 29.3671 38.6828 29.3255 39.0327 29.2963C39.0744 29.2963 39.116 29.288 39.1535 29.2838C39.3327 29.2713 39.5118 29.2838 39.5243 29.238C39.5493 29.1505 39.316 29.0797 39.2744 29.0672C39.0619 29.0172 38.7411 28.988 38.2745 29.0338C35.3916 29.3255 31.7837 30.7461 30.0756 32.2084C30.1548 31.7126 30.2464 31.0669 30.2464 30.6836C30.2464 30.642 30.2714 30.3295 30.2714 30.292C30.2339 29.7171 29.7715 28.8464 29.1674 27.9007C29.1258 27.834 29.0799 27.7632 29.0341 27.6965C29.0341 27.6965 27.8218 26.0093 27.6926 25.1802C27.5593 24.3512 27.6635 24.2345 27.476 23.8304C27.2719 23.393 26.9719 22.7222 26.5136 22.0057C27.3718 22.0348 29.6215 22.1015 29.9631 22.1306C30.3756 22.1681 31.8462 22.3264 32.6211 22.3264C33.6876 22.3264 34.3625 22.1098 35.0374 20.4767C35.0374 20.4767 35.2041 20.7392 35.6707 20.9558C36.1373 21.1724 37.083 20.685 37.4538 20.485C38.1203 20.1226 40.0201 18.9727 40.5408 17.9854C41.0658 16.998 41.1824 15.3274 40.2242 14.3526C39.4285 13.5443 38.0245 14.3109 37.9204 14.3942C37.7704 14.5192 37.7579 14.5192 37.8495 14.74C37.8995 14.865 37.9579 14.84 38.1412 14.74C38.3578 14.6233 39.5202 14.2276 39.9534 14.8067C40.4159 15.4232 40.6117 16.3523 40.1159 17.5771C39.6201 18.7978 38.237 19.5102 37.862 19.7435C37.0038 20.2767 36.2164 20.5975 35.9373 20.4559C35.6124 20.2892 35.2249 20.1351 35.2124 19.206C35.2124 19.1019 35.0541 19.1061 34.9541 19.281C34.8541 19.456 34.4792 20.3684 34.0584 21.0016C33.7834 21.4141 33.3918 21.7557 32.1503 21.7182C30.7797 21.6724 29.8215 21.589 29.2133 21.5432C28.6342 21.5016 25.0555 21.5432 24.1598 21.2433C23.764 21.0475 23.5682 20.7892 23.4974 20.4684C23.3099 19.5977 23.6432 19.2102 24.0848 18.8144C24.3681 18.5561 24.5764 18.2562 24.5764 17.9354C24.5764 17.6479 24.0015 17.273 23.9473 17.0813C23.8932 16.8897 23.989 16.6272 24.0598 16.5148C24.1889 16.3064 26.047 16.6106 26.0929 16.4189C26.1387 16.2231 24.2931 15.3899 24.2223 15.2066C24.1515 15.0275 24.2764 14.7317 24.3681 14.5609C24.4597 14.39 24.8472 13.311 24.8472 13.311C24.8472 13.311 24.1973 12.8194 24.1723 12.8028C23.6765 12.4653 23.7265 12.2862 23.7223 12.1695C23.714 12.0029 23.7557 11.8196 23.8182 11.7321C24.0931 11.3613 26.3595 10.4073 26.9011 9.82818C27.4427 9.25326 27.8301 8.86998 27.8509 8.34089C28.1342 8.35755 28.9716 8.9908 29.2008 9.15744C29.3591 9.26993 29.7382 9.54906 29.7715 9.58238C29.8048 9.61571 29.9173 9.67404 29.9173 9.67404C29.6549 9.2491 28.4342 8.14508 28.0967 7.80763C27.8509 7.56183 27.7051 7.16189 27.7426 6.8661C27.751 6.8036 27.7635 6.75361 27.7718 6.71195C27.8218 6.59113 27.9051 6.44949 28.0384 6.28284C28.2134 6.06621 32.3586 1.01691 37.8745 2.28756C41.2366 3.05829 43.7237 4.4581 45.2735 6.43699C46.3984 7.87845 46.9816 9.59488 46.9816 11.453C46.9816 11.8029 46.9608 12.157 46.9191 12.5153" fill="#D7B038"/>
<path d="M13.7987 38.3514C13.7946 38.4889 13.7862 38.6347 13.7779 38.7972C16.3234 39.5679 19.0188 39.9512 21.8143 39.9595C21.8018 39.8304 21.7893 39.7012 21.7768 39.5721C21.7684 39.5054 21.7643 39.4346 21.7559 39.3679C21.5518 37.3557 21.2935 34.9519 21.0852 33.6854C20.8894 32.4855 20.2687 32.0648 19.6437 31.2982L19.1063 31.4149C19.1063 31.4149 20.2353 32.6939 20.3895 33.0771C20.4978 33.3479 20.8477 36.0059 21.0935 39.3679C20.3062 39.3596 19.4938 39.3179 18.7272 39.2429C18.7022 38.9055 18.6855 38.6764 18.6855 38.643C18.5564 36.8724 18.4356 34.8519 18.3814 34.4269C18.2898 33.6396 17.9148 32.8147 16.2442 30.5442C15.086 28.9694 14.9402 28.332 14.7111 27.9029C14.6111 27.7154 14.4945 27.5654 14.2695 27.3988C13.5279 26.8405 12.1948 25.4032 11.7323 24.9866C11.2699 24.57 10.8075 24.3367 10.4367 25.1699C10.0659 26.0031 10.5992 27.2113 11.1783 28.0487C11.7615 28.8902 11.9781 29.186 11.8823 29.7026C11.8157 30.0567 11.2866 30.3275 11.2866 30.3275C11.2866 30.3275 9.27852 29.4318 8.49113 29.1069C7.70374 28.7819 7.79539 28.9194 7.42461 28.5528C7.05383 28.182 5.67902 27.0363 5.39989 26.853C5.12076 26.6655 4.92079 26.1448 4.18339 25.5865C3.44185 25.0324 2.8836 24.5242 2.23785 24.8949C1.58794 25.2657 1.8879 25.6032 2.40866 26.5155C2.95025 27.4654 3.48351 28.082 4.17923 28.961C4.87497 29.8401 5.77901 30.74 6.19561 31.2982C6.61222 31.8523 7.33296 33.5562 8.4453 33.927C9.55765 34.2978 12.5656 35.4101 13.1696 36.0559C13.2155 36.1059 13.2613 36.1517 13.303 36.1975C13.6529 36.5558 13.857 36.8099 13.8071 38.2889C13.8071 38.3097 13.8071 38.3306 13.8071 38.3514M13.6571 35.8476L13.5321 35.7184C13.4738 35.6559 13.3946 35.5893 13.303 35.5185C12.1531 34.6477 8.75359 33.5062 8.59945 33.4562C7.92871 33.2313 7.35379 32.2564 6.97467 31.6107C6.82886 31.3649 6.70388 31.1566 6.58723 30.9983C6.37476 30.715 6.0623 30.365 5.69985 29.9651C5.33324 29.5568 4.91663 29.0944 4.56667 28.6527L4.25005 28.2528C3.70432 27.5696 3.27521 27.0321 2.83777 26.2656L2.67946 25.9906C2.55031 25.7698 2.39616 25.5032 2.37117 25.3907C2.392 25.374 2.42533 25.349 2.48365 25.3199C2.75028 25.1657 2.99191 25.299 3.68765 25.8281L3.88762 25.9781C4.27922 26.2739 4.50418 26.5614 4.67916 26.7905C4.82497 26.978 4.94996 27.1446 5.1291 27.2613C5.36656 27.4196 6.71221 28.5361 7.07883 28.8985C7.38712 29.2068 7.48294 29.2568 7.81622 29.3735L8.30782 29.561C8.30782 29.561 11.0199 30.6191 11.0408 30.6775C10.8075 30.9233 10.7491 31.2357 10.9783 31.0649C11.3782 30.7608 12.6364 30.1359 12.4197 29.4735C12.1989 28.7986 11.9282 28.357 11.5282 27.782C11.1449 27.2321 10.7117 26.4114 10.7117 25.8073C10.7117 25.6323 10.7408 25.4657 10.8033 25.3282C11.0824 24.8783 11.3282 25.1032 11.5282 25.3199C11.7448 25.5573 11.9406 25.8406 12.1906 26.1114C12.6697 26.6322 13.353 27.3113 13.857 27.6862C13.9612 27.7654 14.0237 27.8279 14.0779 27.8987C14.1612 28.0195 14.2112 28.157 14.3486 28.4111C14.5861 28.8569 14.7444 29.3818 15.6026 30.5525C17.494 33.1271 17.7815 33.952 17.8273 34.3228C17.869 34.6686 17.9731 36.7058 18.0648 38.6805C18.0648 38.7055 18.0773 38.8888 18.0898 39.1596C17.1024 39.043 16.1317 38.8763 15.1819 38.6555C14.8777 38.5722 14.5736 38.4847 14.2737 38.3931C14.2778 38.2306 14.282 38.0931 14.282 37.9806C14.282 36.7475 14.0904 36.2725 13.6612 35.8392" fill="#D7B038"/>
</g>
</g>
<defs>
<clipPath id="clip0_347_66409">
<rect width="47.91" height="39.9944" fill="white" transform="translate(0 0.00390625)"/>
</clipPath>
</defs>
</svg>
