<?xml version="1.0" standalone="no"?>
<!DOCTYPE svg PUBLIC "-//W3C//DTD SVG 20010904//EN"
 "http://www.w3.org/TR/2001/REC-SVG-20010904/DTD/svg10.dtd">
<svg version="1.0" xmlns="http://www.w3.org/2000/svg"
 width="900.000000pt" height="720.000000pt" viewBox="0 0 900.000000 720.000000"
 preserveAspectRatio="xMidYMid meet">
<metadata>
Created by potrace 1.16, written by Peter Selinger 2001-2019
</metadata>
<g transform="translate(0.000000,720.000000) scale(0.100000,-0.100000)"
fill="#000000" stroke="none">
<path d="M3064 7181 c-9 -20 -1005 -1023 -1331 -1341 -93 -91 -301 -299 -461
-463 l-292 -299 0 -1331 0 -1332 1067 5 c588 3 1069 6 1071 8 1 1 2 1065 2
2365 0 2122 -2 2365 -16 2385 -19 27 -28 28 -40 3z"/>
<path d="M3246 7178 c-7 -28 -8 -2091 -1 -2110 4 -11 411 -13 2388 -11 1310 2
2383 6 2385 11 1 4 -229 239 -510 522 -282 284 -676 681 -875 883 -198 202
-365 367 -370 367 -5 0 -82 76 -170 169 -89 93 -164 167 -167 164 -3 -3 -8 2
-12 11 -6 15 -111 16 -1334 16 l-1328 0 -6 -22z"/>
<path d="M5886 4914 c-3 -9 -6 -1079 -6 -2379 0 -2055 2 -2364 15 -2368 9 -4
168 148 470 450 250 250 455 457 455 459 0 2 270 275 600 606 l600 603 0 1323
0 1322 -1064 0 c-961 0 -1064 -2 -1070 -16z"/>
<path d="M980 2273 c0 -14 32 -50 96 -110 106 -96 409 -398 769 -764 127 -129
318 -320 425 -425 107 -105 334 -331 505 -502 l309 -312 1331 0 1330 0 -3
1060 c-2 833 -5 1062 -15 1065 -6 3 -1077 6 -2380 7 l-2367 3 0 -22z"/>
</g>
</svg>
